<svg width="600" height="300" viewBox="0 0 600 300" fill="none" xmlns="http://www.w3.org/2000/svg">
<path d="M88.0989 84.4076V114.43H130.918C125.504 127.719 110.001 136.578 91.7901 136.578C65.705 136.578 48.7251 117.875 48.7251 90.5597C48.7251 62.9981 65.9511 44.2955 91.7901 44.2955C109.262 44.2955 124.766 53.6468 130.918 68.1659H180.873C173.491 28.2999 136.578 0 91.298 0C38.3894 0 0 38.1434 0 90.5597C0 142.976 39.1277 180.873 91.7901 180.873C145.683 180.873 182.596 140.761 182.596 84.4076H88.0989Z" fill="#6FA624"/>
<path d="M279.735 4.18345H206.401V176.444H253.896V128.949H279.735C316.401 128.949 343.717 102.618 343.717 66.4433C343.717 30.5147 316.401 4.18345 279.735 4.18345ZM274.075 87.6067H253.896V45.772H274.075C286.625 45.772 294.746 54.385 294.746 66.6894C294.746 78.9937 286.625 87.6067 274.075 87.6067Z" fill="#0077B9"/>
<path d="M413.244 133.133V68.658V4.18345H365.011V176.444H474.52V133.133H413.244Z" fill="#9B034A"/>
<path d="M180.326 216.501L178.905 223.938C173.545 218.36 165.999 215.079 157.249 215.079C139.64 215.079 126.516 228.313 126.516 246.031C126.516 263.75 139.64 277.093 157.249 277.093C165.889 277.093 173.327 273.812 178.686 268.453L179.889 275.562H189.623V216.501H180.326ZM158.233 265.39C147.077 265.39 138.875 257.078 138.875 246.031C138.875 234.985 147.077 226.673 158.233 226.673C169.389 226.673 177.483 234.876 177.483 246.031C177.483 257.187 169.389 265.39 158.233 265.39Z" fill="#222222"/>
<path d="M207.045 275.562H219.185V195.392H207.045V275.562Z" fill="#222222"/>
<path d="M262.994 277.093C277.541 277.093 289.244 267.906 292.415 254.125H280.166C276.994 261.344 270.76 265.5 262.994 265.5C252.495 265.5 244.401 256.969 244.401 246.031C244.401 235.094 252.385 226.673 262.994 226.673C270.65 226.673 277.213 230.829 280.275 237.61H292.306C289.025 224.048 277.65 215.079 262.994 215.079C245.385 215.079 232.042 228.423 232.042 246.031C232.042 263.64 245.385 277.093 262.994 277.093Z" fill="#222222"/>
<path d="M335.734 215.189C327.859 215.189 321.078 218.251 316.594 223.282V195.392H304.454V275.562H316.594V243.953C316.594 233.563 323.266 226.126 332.453 226.126C341.421 226.126 346.015 231.813 346.015 242.532V275.562H358.155V240.016C358.155 224.813 349.515 215.189 335.734 215.189Z" fill="#222222"/>
<path d="M430.735 246.25C430.735 229.079 418.704 215.079 400.548 215.079C383.267 215.079 370.252 228.423 370.252 246.031C370.252 263.75 383.267 277.093 400.548 277.093C413.782 277.093 424.61 269.437 429.313 256.969H416.516C413.344 262.437 407.657 265.718 400.548 265.718C390.923 265.718 384.033 259.812 382.502 250.188H430.406C430.625 248.875 430.735 247.563 430.735 246.25ZM400.548 226.126C409.626 226.126 416.297 231.376 418.485 240.344H382.83C384.798 231.594 391.47 226.126 400.548 226.126Z" fill="#222222"/>
<path d="M509.576 215.189C501.811 215.189 494.592 219.235 490.327 225.579C486.936 219.126 480.593 215.189 472.608 215.189C465.499 215.189 458.718 218.689 454.234 224.157L452.156 216.501H443.625V275.562H455.765V243.297C455.765 233.235 461.781 226.126 469.655 226.126C476.983 226.126 481.139 231.485 481.139 241V275.562H492.952V243.297C492.952 233.235 498.967 226.126 506.842 226.126C514.17 226.126 518.326 231.485 518.326 241V275.562H530.466V238.047C530.466 224.704 522.044 215.189 509.576 215.189Z" fill="#222222"/>
<path d="M587.094 216.501L569.485 257.734L550.673 216.501H537.549L563.251 271.296L561.939 274.14C557.564 283.546 555.158 285.843 547.392 285.843H542.252V296.78H548.267C560.298 296.78 566.204 291.53 572.876 276.656L600 216.501H587.094Z" fill="#222222"/>
<circle cx="450.365" cy="292.651" r="6.83573" fill="#6FA624"/>
<circle cx="487.961" cy="292.651" r="6.83573" fill="#0077B9"/>
<circle cx="525.558" cy="292.651" r="6.83573" fill="#9B034A"/>
</svg>
