<svg width="26" height="26" viewBox="0 0 26 26" fill="none" xmlns="http://www.w3.org/2000/svg">
<path d="M4.875 23.8327C4.44167 23.8327 4.0625 23.6702 3.7375 23.3452C3.4125 23.0202 3.25 22.641 3.25 22.2077V5.41602C3.25 4.98268 3.4125 4.60352 3.7375 4.27852C4.0625 3.95352 4.44167 3.79102 4.875 3.79102H6.63542V2.16602H8.39583V3.79102H17.6042V2.16602H19.3646V3.79102H21.125C21.5583 3.79102 21.9375 3.95352 22.2625 4.27852C22.5875 4.60352 22.75 4.98268 22.75 5.41602V22.2077C22.75 22.641 22.5875 23.0202 22.2625 23.3452C21.9375 23.6702 21.5583 23.8327 21.125 23.8327H4.875ZM4.875 22.2077H21.125V10.5618H4.875V22.2077ZM4.875 8.93685H21.125V5.41602H4.875V8.93685ZM13 15.166C12.6931 15.166 12.4358 15.0622 12.2281 14.8546C12.0205 14.6469 11.9167 14.3896 11.9167 14.0827C11.9167 13.7757 12.0205 13.5184 12.2281 13.3108C12.4358 13.1032 12.6931 12.9993 13 12.9993C13.3069 12.9993 13.5642 13.1032 13.7719 13.3108C13.9795 13.5184 14.0833 13.7757 14.0833 14.0827C14.0833 14.3896 13.9795 14.6469 13.7719 14.8546C13.5642 15.0622 13.3069 15.166 13 15.166ZM8.66667 15.166C8.35972 15.166 8.10243 15.0622 7.89479 14.8546C7.68715 14.6469 7.58333 14.3896 7.58333 14.0827C7.58333 13.7757 7.68715 13.5184 7.89479 13.3108C8.10243 13.1032 8.35972 12.9993 8.66667 12.9993C8.97361 12.9993 9.2309 13.1032 9.43854 13.3108C9.64618 13.5184 9.75 13.7757 9.75 14.0827C9.75 14.3896 9.64618 14.6469 9.43854 14.8546C9.2309 15.0622 8.97361 15.166 8.66667 15.166ZM17.3333 15.166C17.0264 15.166 16.7691 15.0622 16.5615 14.8546C16.3538 14.6469 16.25 14.3896 16.25 14.0827C16.25 13.7757 16.3538 13.5184 16.5615 13.3108C16.7691 13.1032 17.0264 12.9993 17.3333 12.9993C17.6403 12.9993 17.8976 13.1032 18.1052 13.3108C18.3128 13.5184 18.4167 13.7757 18.4167 14.0827C18.4167 14.3896 18.3128 14.6469 18.1052 14.8546C17.8976 15.0622 17.6403 15.166 17.3333 15.166ZM13 19.4993C12.6931 19.4993 12.4358 19.3955 12.2281 19.1879C12.0205 18.9802 11.9167 18.723 11.9167 18.416C11.9167 18.1091 12.0205 17.8518 12.2281 17.6441C12.4358 17.4365 12.6931 17.3327 13 17.3327C13.3069 17.3327 13.5642 17.4365 13.7719 17.6441C13.9795 17.8518 14.0833 18.1091 14.0833 18.416C14.0833 18.723 13.9795 18.9802 13.7719 19.1879C13.5642 19.3955 13.3069 19.4993 13 19.4993ZM8.66667 19.4993C8.35972 19.4993 8.10243 19.3955 7.89479 19.1879C7.68715 18.9802 7.58333 18.723 7.58333 18.416C7.58333 18.1091 7.68715 17.8518 7.89479 17.6441C8.10243 17.4365 8.35972 17.3327 8.66667 17.3327C8.97361 17.3327 9.2309 17.4365 9.43854 17.6441C9.64618 17.8518 9.75 18.1091 9.75 18.416C9.75 18.723 9.64618 18.9802 9.43854 19.1879C9.2309 19.3955 8.97361 19.4993 8.66667 19.4993ZM17.3333 19.4993C17.0264 19.4993 16.7691 19.3955 16.5615 19.1879C16.3538 18.9802 16.25 18.723 16.25 18.416C16.25 18.1091 16.3538 17.8518 16.5615 17.6441C16.7691 17.4365 17.0264 17.3327 17.3333 17.3327C17.6403 17.3327 17.8976 17.4365 18.1052 17.6441C18.3128 17.8518 18.4167 18.1091 18.4167 18.416C18.4167 18.723 18.3128 18.9802 18.1052 19.1879C17.8976 19.3955 17.6403 19.4993 17.3333 19.4993Z" fill="#0077B9" stroke="#0077B9" stroke-width="0.5"/>
</svg>
