<svg width="24" height="24" viewBox="0 0 24 24" fill="none" xmlns="http://www.w3.org/2000/svg">
<path d="M15.9813 17.2264L17.2001 16.0077L12.8938 11.6743V6.2306H11.2688V12.3243L15.9813 17.2264ZM12.0001 22.8327C10.5195 22.8327 9.12022 22.5483 7.80217 21.9796C6.48411 21.4108 5.33307 20.6344 4.34904 19.6504C3.36501 18.6664 2.58862 17.5153 2.01987 16.1973C1.45112 14.8792 1.16675 13.4799 1.16675 11.9993C1.16675 10.5188 1.45112 9.11949 2.01987 7.80143C2.58862 6.48338 3.36501 5.33234 4.34904 4.34831C5.33307 3.36428 6.48411 2.58789 7.80217 2.01914C9.12022 1.45039 10.5195 1.16602 12.0001 1.16602C13.4806 1.16602 14.8799 1.45039 16.198 2.01914C17.5161 2.58789 18.6671 3.36428 19.6511 4.34831C20.6352 5.33234 21.4115 6.48338 21.9803 7.80143C22.549 9.11949 22.8334 10.5188 22.8334 11.9993C22.8334 13.4799 22.549 14.8792 21.9803 16.1973C21.4115 17.5153 20.6352 18.6664 19.6511 19.6504C18.6671 20.6344 17.5161 21.4108 16.198 21.9796C14.8799 22.5483 13.4806 22.8327 12.0001 22.8327ZM12.0001 21.2077C14.5279 21.2077 16.6945 20.3049 18.5001 18.4993C20.3056 16.6938 21.2084 14.5271 21.2084 11.9993C21.2084 9.47157 20.3056 7.3049 18.5001 5.49935C16.6945 3.69379 14.5279 2.79102 12.0001 2.79102C9.4723 2.79102 7.30564 3.69379 5.50008 5.49935C3.69453 7.3049 2.79175 9.47157 2.79175 11.9993C2.79175 14.5271 3.69453 16.6938 5.50008 18.4993C7.30564 20.3049 9.4723 21.2077 12.0001 21.2077Z" fill="#0077B9" stroke="#0077B9" stroke-width="0.5"/>
</svg>
