<svg width="22" height="24" viewBox="0 0 22 24" fill="none" xmlns="http://www.w3.org/2000/svg">
<path d="M4.01245 22.8327C3.21801 22.8327 2.54544 22.5573 1.99474 22.0066C1.44405 21.4559 1.1687 20.7834 1.1687 19.9889V16.6035H4.60828V1.16602L6.23328 2.79102L7.85828 1.16602L9.4562 2.79102L11.0812 1.16602L12.7062 2.79102L14.3312 1.16602L15.9562 2.79102L17.5812 1.16602L19.2062 2.79102L20.8312 1.16602V19.9889C20.8312 20.7834 20.5559 21.4559 20.0052 22.0066C19.4545 22.5573 18.7819 22.8327 17.9875 22.8327H4.01245ZM17.9875 21.2077C18.3486 21.2077 18.642 21.0948 18.8677 20.8691C19.0934 20.6434 19.2062 20.35 19.2062 19.9889V3.87435H6.23328V16.6035H16.7687V19.9889C16.7687 20.35 16.8815 20.6434 17.1072 20.8691C17.3329 21.0948 17.6263 21.2077 17.9875 21.2077ZM7.6687 8.15352V6.52852H14.1687V8.15352H7.6687ZM7.6687 11.7827V10.1577H14.1687V11.7827H7.6687ZM16.6875 8.15352C16.4708 8.15352 16.2812 8.07227 16.1187 7.90977C15.9562 7.74727 15.875 7.55768 15.875 7.34102C15.875 7.12435 15.9562 6.93477 16.1187 6.77227C16.2812 6.60977 16.4708 6.52852 16.6875 6.52852C16.9041 6.52852 17.0937 6.60977 17.2562 6.77227C17.4187 6.93477 17.5 7.12435 17.5 7.34102C17.5 7.55768 17.4187 7.74727 17.2562 7.90977C17.0937 8.07227 16.9041 8.15352 16.6875 8.15352ZM16.6875 11.6473C16.4708 11.6473 16.2812 11.566 16.1187 11.4035C15.9562 11.241 15.875 11.0514 15.875 10.8348C15.875 10.6181 15.9562 10.4285 16.1187 10.266C16.2812 10.1035 16.4708 10.0223 16.6875 10.0223C16.9041 10.0223 17.0937 10.1035 17.2562 10.266C17.4187 10.4285 17.5 10.6181 17.5 10.8348C17.5 11.0514 17.4187 11.241 17.2562 11.4035C17.0937 11.566 16.9041 11.6473 16.6875 11.6473ZM3.98537 21.2077H15.1437V18.2285H2.7937V19.9889C2.7937 20.35 2.90655 20.6434 3.13224 20.8691C3.35794 21.0948 3.64231 21.2077 3.98537 21.2077Z" fill="#0077B9"/>
<path d="M2.7937 18.2285H15.1437V21.2077H3.98537C3.64231 21.2077 3.35794 21.0948 3.13224 20.8691C2.90655 20.6434 2.7937 20.35 2.7937 19.9889V18.2285ZM2.7937 18.2285V21.2077M4.01245 22.8327C3.21801 22.8327 2.54544 22.5573 1.99474 22.0066C1.44405 21.4559 1.1687 20.7834 1.1687 19.9889V16.6035H4.60828V1.16602L6.23328 2.79102L7.85828 1.16602L9.4562 2.79102L11.0812 1.16602L12.7062 2.79102L14.3312 1.16602L15.9562 2.79102L17.5812 1.16602L19.2062 2.79102L20.8312 1.16602V19.9889C20.8312 20.7834 20.5559 21.4559 20.0052 22.0066C19.4545 22.5573 18.7819 22.8327 17.9875 22.8327H4.01245ZM17.9875 21.2077C18.3486 21.2077 18.642 21.0948 18.8677 20.8691C19.0934 20.6434 19.2062 20.35 19.2062 19.9889V3.87435H6.23328V16.6035H16.7687V19.9889C16.7687 20.35 16.8816 20.6434 17.1072 20.8691C17.3329 21.0948 17.6263 21.2077 17.9875 21.2077ZM7.6687 8.15352V6.52852H14.1687V8.15352H7.6687ZM7.6687 11.7827V10.1577H14.1687V11.7827H7.6687ZM16.6875 8.15352C16.4708 8.15352 16.2812 8.07227 16.1187 7.90977C15.9562 7.74727 15.875 7.55768 15.875 7.34102C15.875 7.12435 15.9562 6.93477 16.1187 6.77227C16.2812 6.60977 16.4708 6.52852 16.6875 6.52852C16.9041 6.52852 17.0937 6.60977 17.2562 6.77227C17.4187 6.93477 17.5 7.12435 17.5 7.34102C17.5 7.55768 17.4187 7.74727 17.2562 7.90977C17.0937 8.07227 16.9041 8.15352 16.6875 8.15352ZM16.6875 11.6473C16.4708 11.6473 16.2812 11.566 16.1187 11.4035C15.9562 11.241 15.875 11.0514 15.875 10.8348C15.875 10.6181 15.9562 10.4285 16.1187 10.266C16.2812 10.1035 16.4708 10.0223 16.6875 10.0223C16.9041 10.0223 17.0937 10.1035 17.2562 10.266C17.4187 10.4285 17.5 10.6181 17.5 10.8348C17.5 11.0514 17.4187 11.241 17.2562 11.4035C17.0937 11.566 16.9041 11.6473 16.6875 11.6473Z" stroke="#0077B9" stroke-width="0.5"/>
</svg>
