<svg width="200" height="200" viewBox="0 0 200 200" fill="none" xmlns="http://www.w3.org/2000/svg">
<path d="M156.9 107.376L127.808 96.3763C127.33 96.1956 126.892 95.9224 126.52 95.5725C126.148 95.2225 125.848 94.8026 125.638 94.3367C125.428 93.8709 125.312 93.3682 125.297 92.8575C125.281 92.3468 125.367 91.838 125.548 91.3603L140.772 51.0963C141.137 50.131 141.87 49.3502 142.811 48.9257C143.752 48.5011 144.822 48.4675 145.788 48.8323L164.24 55.8083L172.952 75.9283L161.916 105.128C161.548 106.091 160.813 106.868 159.872 107.289C158.932 107.711 157.863 107.742 156.9 107.376Z" fill="#F5F5F5"/>
<path d="M164.241 55.8086L159.953 67.1406C159.784 67.5852 159.705 68.0587 159.719 68.534C159.734 69.0092 159.842 69.477 160.038 69.9104C160.233 70.3439 160.512 70.7347 160.858 71.0604C161.205 71.386 161.612 71.6403 162.057 71.8086L172.953 75.9286L164.241 55.8086Z" fill="#EBEBEB"/>
<path d="M159.724 68.1924C159.724 68.1924 158.544 70.8884 161.324 72.9924C161.429 73.0708 161.539 73.1429 161.652 73.2084C162.98 74.0084 171.716 79.2084 171.796 78.9964L172.948 75.9484L162.052 71.8284C162.052 71.8284 159.372 70.6884 159.724 68.1924Z" fill="#E0E0E0"/>
<path d="M157.688 65.7563C157.632 65.9043 154.576 64.8803 150.86 63.4763C147.144 62.0723 144.176 60.8123 144.232 60.6763C144.288 60.5403 147.344 61.5523 151.06 62.9563C154.776 64.3603 157.744 65.6003 157.688 65.7563Z" fill="#E0E0E0"/>
<path d="M163.956 75.4522C163.9 75.5962 158.9 73.8522 152.784 71.5282C146.668 69.2042 141.752 67.2202 141.808 67.0722C141.864 66.9242 146.864 68.6722 152.984 71.0002C159.104 73.3282 164 75.3042 163.956 75.4522Z" fill="#E0E0E0"/>
<path d="M163.928 81.5566C163.872 81.7006 158.424 79.7766 151.756 77.2526C145.088 74.7286 139.728 72.5686 139.784 72.4246C139.84 72.2806 145.288 74.2046 151.956 76.7286C158.624 79.2526 164 81.4086 163.928 81.5566Z" fill="#E0E0E0"/>
<path d="M162.02 86.6039C161.964 86.7479 156.516 84.8239 149.848 82.2999C143.18 79.7759 137.82 77.5999 137.876 77.4719C137.932 77.3439 143.38 79.2519 150.048 81.7719C156.716 84.2919 162.076 86.4559 162.02 86.6039Z" fill="#E0E0E0"/>
<path d="M160.112 91.6523C160.056 91.7963 154.604 89.8723 147.94 87.3483C141.276 84.8243 135.912 82.6643 135.964 82.5203C136.016 82.3763 141.468 84.3003 148.14 86.8203C154.812 89.3403 160.164 91.5043 160.112 91.6523Z" fill="#E0E0E0"/>
<path d="M158.2 96.7001C158.148 96.8441 152.696 94.9161 146.032 92.3961C139.368 89.8761 134 87.7121 134.056 87.5681C134.112 87.4241 139.56 89.3481 146.228 91.8681C152.896 94.3881 158.256 96.5521 158.2 96.7001Z" fill="#E0E0E0"/>
<path d="M59.9066 65.5751L21.5544 79.0059C20.2283 79.4702 19.5298 80.9217 19.9941 82.2477L39.2367 137.196C39.7011 138.522 41.1525 139.22 42.4786 138.756L80.8309 125.325C82.1569 124.861 82.8554 123.409 82.3911 122.083L63.1485 67.1353C62.6841 65.8092 61.2327 65.1107 59.9066 65.5751Z" fill="#EBEBEB"/>
<path d="M60.3987 68.9906L23.2998 81.9824L42.3718 136.444L79.4707 123.452L60.3987 68.9906Z" fill="#E0E0E0"/>
<path d="M59.7347 68.7347L22.6357 81.7266L41.3442 135.149L78.4431 122.158L59.7347 68.7347Z" fill="#FAFAFA"/>
<path d="M78.4358 122.156L59.6798 68.7523L59.7478 68.7843L22.6558 81.7803L22.6918 81.7083C29.6838 101.772 36.1918 120.304 41.3878 135.132L41.3278 135.104L78.4398 122.156L41.3558 135.2H41.3118V135.156C36.1118 120.328 29.6238 101.796 22.5918 81.7363V81.6803H22.6438L59.7398 68.6963H59.7918V68.7443L78.4358 122.156Z" fill="#E0E0E0"/>
<path d="M65.2803 126.764C65.2803 126.764 73.5403 119.796 74.9723 112.54C74.1434 113.69 73.0902 114.661 71.8761 115.393C70.6621 116.125 69.3123 116.604 67.9083 116.8C67.9083 116.8 67.7443 124.4 65.2803 126.764Z" fill="#E0E0E0"/>
<path d="M35.3142 93.63L33.3624 94.3135C32.6493 94.5632 32.2737 95.3437 32.5234 96.0567L33.2069 98.0085C33.4566 98.7216 34.2371 99.0972 34.9502 98.8475L36.902 98.164C37.615 97.9143 37.9907 97.1338 37.741 96.4207L37.0575 94.469C36.8077 93.7559 36.0273 93.3803 35.3142 93.63Z" fill="#EBEBEB"/>
<path d="M35.0759 96.9918C35.0623 96.9988 35.0472 97.0025 35.0319 97.0025C35.0166 97.0025 35.0015 96.9988 34.9879 96.9918L34.0919 96.4718C34.0702 96.4552 34.0553 96.4313 34.05 96.4045C34.0447 96.3777 34.0494 96.3499 34.0631 96.3264C34.0769 96.3028 34.0988 96.285 34.1247 96.2765C34.1506 96.2679 34.1788 96.2691 34.2039 96.2798L35.0039 96.7358L35.9479 94.7358C35.9616 94.7092 35.9849 94.6887 36.013 94.6783C36.0411 94.6679 36.0721 94.6685 36.0999 94.6798C36.1134 94.6862 36.1255 94.6953 36.1355 94.7064C36.1455 94.7176 36.1532 94.7307 36.158 94.7448C36.1629 94.759 36.1648 94.774 36.1638 94.7889C36.1627 94.8039 36.1587 94.8185 36.1519 94.8318L35.1559 96.9598C35.1456 96.9706 35.1332 96.979 35.1194 96.9845C35.1056 96.99 35.0907 96.9925 35.0759 96.9918Z" fill="white"/>
<path d="M60.6917 85.3607C60.6917 85.3927 55.8917 87.1087 49.9357 89.1927C43.9797 91.2767 39.1357 92.9407 39.1357 92.9127C39.1357 92.8847 43.9357 91.1647 49.8957 89.0807C55.8557 86.9967 60.6837 85.3327 60.6917 85.3607Z" fill="#E0E0E0"/>
<path d="M49.3803 93.0479C49.3803 93.0479 49.2563 93.1039 49.0323 93.1919L48.0643 93.5519C47.2643 93.8479 46.1123 94.2519 44.8643 94.6919C43.6163 95.1319 42.4643 95.5239 41.6643 95.7999L40.6843 96.1239C40.5657 96.1674 40.444 96.2021 40.3203 96.2279C40.4322 96.1693 40.5485 96.1198 40.6683 96.0799L41.6363 95.7239C42.4363 95.4239 43.5883 95.0199 44.8363 94.5799C46.0843 94.1399 47.2363 93.7519 48.0363 93.4719L49.0163 93.1479C49.1345 93.1041 49.2563 93.0707 49.3803 93.0479Z" fill="#E0E0E0"/>
<path d="M61.1997 86.8325C61.1997 86.8605 56.3997 88.5765 50.4396 90.6605C44.4796 92.7445 39.6396 94.4125 39.6396 94.3805C39.6396 94.3485 44.4397 92.6365 50.4037 90.5525C56.3677 88.4685 61.1997 86.8005 61.1997 86.8325Z" fill="#E0E0E0"/>
<path d="M38.1003 101.589L36.1485 102.272C35.4355 102.522 35.0599 103.303 35.3096 104.016L35.9931 105.968C36.2428 106.681 37.0233 107.056 37.7363 106.806L39.6881 106.123C40.4012 105.873 40.7768 105.093 40.5271 104.38L39.8436 102.428C39.5939 101.715 38.8134 101.339 38.1003 101.589Z" fill="#EBEBEB"/>
<path d="M37.8646 104.952C37.8503 104.959 37.8345 104.963 37.8186 104.963C37.8026 104.963 37.7869 104.959 37.7726 104.952L36.8806 104.432C36.8676 104.425 36.8563 104.415 36.8472 104.404C36.8381 104.392 36.8315 104.379 36.8278 104.365C36.824 104.35 36.8232 104.336 36.8254 104.321C36.8276 104.306 36.8328 104.292 36.8406 104.28C36.8476 104.267 36.8572 104.256 36.8688 104.247C36.8804 104.238 36.8937 104.231 36.9079 104.227C36.9222 104.223 36.937 104.223 36.9516 104.225C36.9661 104.227 36.9801 104.232 36.9926 104.24L37.7926 104.696L38.7366 102.676C38.7496 102.65 38.7721 102.629 38.7995 102.619C38.827 102.608 38.8574 102.609 38.8846 102.62C38.9116 102.632 38.9327 102.655 38.9432 102.682C38.9537 102.71 38.9527 102.741 38.9406 102.768L37.9446 104.9C37.9357 104.914 37.924 104.926 37.9102 104.935C37.8964 104.944 37.8808 104.949 37.8646 104.952Z" fill="white"/>
<path d="M63.4799 93.3207C63.4799 93.3527 58.6799 95.0647 52.7199 97.1527C46.7599 99.2407 41.9199 100.901 41.9199 100.873C41.9199 100.845 46.7199 99.1247 52.6799 97.0407C58.6399 94.9567 63.4719 93.2927 63.4799 93.3207Z" fill="#E0E0E0"/>
<path d="M52.1684 101.008C52.1684 101.008 52.0444 101.064 51.8164 101.152L50.8524 101.512C50.0524 101.808 48.9004 102.212 47.6524 102.652C46.4044 103.092 45.2524 103.484 44.4524 103.76L43.4724 104.084C43.3538 104.127 43.2321 104.162 43.1084 104.188C43.2198 104.128 43.3362 104.079 43.4564 104.04L44.4244 103.684C45.2244 103.384 46.3764 102.98 47.6244 102.54C48.8724 102.1 50.0244 101.712 50.8244 101.432L51.8044 101.108C51.9226 101.064 52.0444 101.031 52.1684 101.008Z" fill="#E0E0E0"/>
<path d="M64.0004 94.8005C64.0004 94.8285 59.2004 96.5445 53.2404 98.6285C47.2804 100.713 42.4404 102.381 42.4404 102.349C42.4404 102.317 47.2404 100.605 53.2004 98.5205C59.1604 96.4365 64.0004 94.7605 64.0004 94.8005Z" fill="#E0E0E0"/>
<path d="M40.8904 109.549L38.9386 110.232C38.2255 110.482 37.8499 111.263 38.0996 111.976L38.7831 113.927C39.0328 114.641 39.8133 115.016 40.5264 114.766L42.4781 114.083C43.1912 113.833 43.5668 113.053 43.3171 112.34L42.6336 110.388C42.3839 109.675 41.6034 109.299 40.8904 109.549Z" fill="#EBEBEB"/>
<path d="M40.6517 112.913C40.6374 112.92 40.6216 112.923 40.6057 112.923C40.5897 112.923 40.574 112.92 40.5597 112.913L39.6637 112.401C39.6491 112.394 39.636 112.385 39.6252 112.373C39.6145 112.362 39.6064 112.348 39.6014 112.333C39.5964 112.318 39.5947 112.302 39.5963 112.286C39.598 112.27 39.603 112.255 39.611 112.241C39.619 112.228 39.6298 112.216 39.6427 112.206C39.6556 112.197 39.6704 112.191 39.686 112.188C39.7015 112.185 39.7176 112.185 39.7331 112.189C39.7485 112.192 39.7631 112.199 39.7757 112.209L40.5757 112.665L41.5197 110.645C41.5253 110.631 41.5337 110.618 41.5443 110.607C41.555 110.596 41.5677 110.588 41.5818 110.582C41.5958 110.577 41.6108 110.574 41.6259 110.574C41.641 110.575 41.6559 110.578 41.6697 110.584C41.6835 110.59 41.6959 110.599 41.7061 110.61C41.7164 110.622 41.7242 110.635 41.7293 110.649C41.7343 110.663 41.7364 110.678 41.7355 110.693C41.7345 110.708 41.7305 110.723 41.7237 110.737L40.7277 112.869C40.7081 112.892 40.6813 112.907 40.6517 112.913Z" fill="white"/>
<path d="M66.268 101.281C66.268 101.313 61.468 103.025 55.508 105.113C49.548 107.201 44.708 108.861 44.708 108.829C44.708 108.797 49.508 107.085 55.472 105.001C61.436 102.917 66.256 101.253 66.268 101.281Z" fill="#E0E0E0"/>
<path d="M54.9566 108.964C54.8431 109.022 54.7254 109.071 54.6046 109.112L53.6366 109.472C52.8366 109.768 51.6886 110.172 50.4366 110.612C49.1846 111.052 48.0366 111.44 47.2366 111.72L46.2566 112.044C46.1378 112.087 46.0161 112.122 45.8926 112.148C46.004 112.088 46.1204 112.039 46.2406 112L47.2086 111.64C48.0086 111.344 49.1606 110.94 50.4086 110.5C51.6566 110.06 52.8086 109.672 53.6086 109.392L54.5846 109.068C54.7065 109.026 54.8307 108.991 54.9566 108.964Z" fill="#E0E0E0"/>
<path d="M66.8002 102.752C66.8002 102.78 62.0002 104.496 56.0402 106.58C50.0802 108.664 45.2402 110.332 45.2402 110.3C45.2402 110.268 50.0402 108.556 56.0002 106.468C61.9602 104.38 66.7722 102.72 66.8002 102.752Z" fill="#E0E0E0"/>
<path d="M43.6765 117.508L41.7247 118.191C41.0116 118.441 40.636 119.222 40.8857 119.935L41.5692 121.886C41.819 122.6 42.5994 122.975 43.3125 122.725L45.2643 122.042C45.9773 121.792 46.353 121.012 46.1033 120.299L45.4198 118.347C45.17 117.634 44.3896 117.258 43.6765 117.508Z" fill="#EBEBEB"/>
<path d="M43.4356 120.873C43.4217 120.879 43.4067 120.882 43.3916 120.882C43.3765 120.882 43.3615 120.879 43.3476 120.873L42.4516 120.353C42.4262 120.337 42.4079 120.312 42.4007 120.284C42.3936 120.255 42.3982 120.224 42.4136 120.199C42.429 120.173 42.4539 120.155 42.4828 120.148C42.5116 120.141 42.5422 120.145 42.5676 120.161L43.3676 120.617L44.3116 118.617C44.3238 118.59 44.3463 118.569 44.374 118.558C44.4018 118.548 44.4326 118.548 44.4596 118.561C44.486 118.574 44.5064 118.596 44.5168 118.624C44.5272 118.651 44.5268 118.681 44.5156 118.709L43.5156 120.841C43.4941 120.861 43.4654 120.873 43.4356 120.873Z" fill="white"/>
<path d="M69.0561 109.24C69.0561 109.272 64.2561 110.984 58.2961 113.068C52.3361 115.152 47.4961 116.82 47.4961 116.788C47.4961 116.756 52.2961 115.044 58.2561 112.96C64.2161 110.876 69.0441 109.2 69.0561 109.24Z" fill="#E0E0E0"/>
<path d="M57.7397 116.924C57.6283 116.983 57.5118 117.033 57.3917 117.072L56.4237 117.432C55.6237 117.728 54.4717 118.132 53.2237 118.572C51.9757 119.012 50.8237 119.4 50.0237 119.68L49.0437 120.004C48.8117 120.076 48.6797 120.112 48.6797 120.108C48.7911 120.048 48.9075 119.999 49.0277 119.96L49.9957 119.6C50.7957 119.304 51.9477 118.9 53.1957 118.46C54.4437 118.02 55.5957 117.632 56.3957 117.352L57.3757 117.028C57.4945 116.985 57.6161 116.95 57.7397 116.924Z" fill="#E0E0E0"/>
<path d="M69.5717 110.712C69.5717 110.74 64.7717 112.456 58.8117 114.54C52.8517 116.624 48.0117 118.288 48.0117 118.26C48.0117 118.232 52.8117 116.516 58.7717 114.428C64.7317 112.34 69.5597 110.68 69.5717 110.712Z" fill="#E0E0E0"/>
<path d="M26.8359 76.5206L27.8119 79.3206C28.0849 80.1001 28.6562 80.7393 29.4002 81.0978C30.1443 81.4563 31.0002 81.5048 31.7799 81.2326L52.2999 74.0326C52.6857 73.8979 53.0412 73.6884 53.3459 73.4162C53.6506 73.144 53.8987 72.8144 54.0759 72.4462C54.2532 72.078 54.356 71.6785 54.3787 71.2705C54.4013 70.8625 54.3433 70.4541 54.2079 70.0686L53.2319 67.2686L26.8359 76.5206Z" fill="#E0E0E0"/>
<path d="M40.3081 72.7282C39.763 72.92 39.1732 72.9457 38.6135 72.8022C38.0537 72.6586 37.5492 72.3522 37.1637 71.9217C36.7782 71.4912 36.5291 70.956 36.4479 70.3839C36.3667 69.8117 36.4571 69.2284 36.7077 68.7077C36.9582 68.1869 37.3577 67.7523 37.8554 67.4587C38.3531 67.1651 38.9268 67.0258 39.5037 67.0584C40.0807 67.091 40.635 67.294 41.0964 67.6418C41.5579 67.9896 41.9058 68.4666 42.0961 69.0122C42.3506 69.7421 42.3054 70.5432 41.9702 71.2398C41.635 71.9364 41.0373 72.4716 40.3081 72.7282ZM38.7481 68.2762C38.4119 68.3936 38.1181 68.608 37.9038 68.8924C37.6895 69.1769 37.5644 69.5184 37.5443 69.874C37.5242 70.2295 37.61 70.583 37.7908 70.8898C37.9717 71.1965 38.2395 71.4427 38.5603 71.5973C38.8811 71.7518 39.2406 71.8077 39.5932 71.7579C39.9458 71.7081 40.2757 71.5548 40.5411 71.3175C40.8066 71.0801 40.9957 70.7694 41.0845 70.4245C41.1734 70.0797 41.1579 69.7162 41.0401 69.3802C40.8823 68.93 40.5523 68.5609 40.1225 68.3539C39.6928 68.1469 39.1984 68.119 38.7481 68.2762Z" fill="#E0E0E0"/>
<path d="M56.7077 79.9998C56.7077 80.0518 51.3157 81.9998 44.6237 84.3398C37.9317 86.6798 32.4917 88.5398 32.4717 88.4878C32.4517 88.4358 37.8637 86.4878 44.5557 84.1478C51.2477 81.8078 56.6877 79.9318 56.7077 79.9998Z" fill="#E0E0E0"/>
<path d="M49.7764 80.98C49.7764 81.032 47.4164 81.916 44.4604 82.952C41.5044 83.988 39.0924 84.8 39.0724 84.728C39.0524 84.656 41.4364 83.792 44.3924 82.756C47.3484 81.72 49.7604 80.928 49.7764 80.98Z" fill="#E0E0E0"/>
<path d="M156.4 162.032C157.873 161.34 159.528 161.14 161.124 161.46C161.98 161.6 162.876 161.86 163.456 162.5C164.036 163.14 164.152 164.276 163.48 164.828C163.046 165.123 162.522 165.255 162 165.2C160.748 165.2 159.364 164.964 158.368 165.716C157.796 166.144 157.42 166.856 156.74 167.068C156.398 167.148 156.039 167.113 155.718 166.968C155.398 166.823 155.134 166.577 154.968 166.268C154.644 165.642 154.573 164.917 154.768 164.24C154.852 163.771 155.043 163.328 155.326 162.945C155.609 162.562 155.976 162.25 156.4 162.032Z" fill="#0077B9"/>
<path d="M153.088 155.68C153.968 156.932 155.676 156.52 156.468 155.752C157.26 154.984 157.592 153.876 157.896 152.82C158.592 150.4 159.296 147.864 158.78 145.4C158.651 144.659 158.324 143.968 157.832 143.4C157.581 143.118 157.261 142.907 156.903 142.787C156.545 142.668 156.162 142.645 155.792 142.72C154.928 142.948 154.396 143.792 154.008 144.592C152.867 146.964 152.27 149.56 152.26 152.192C152.26 153.416 152.4 154.696 153.088 155.708" fill="#0077B9"/>
<path d="M150.676 157.479C151.128 156.89 151.429 156.198 151.553 155.466C151.677 154.733 151.621 153.981 151.388 153.275C150.905 151.87 150.044 150.625 148.9 149.675C147.6 148.518 146.086 147.626 144.444 147.047C143.81 146.791 143.127 146.675 142.444 146.707C142.102 146.727 141.771 146.829 141.478 147.007C141.185 147.184 140.94 147.43 140.764 147.723C140.292 148.619 140.764 149.703 141.228 150.587C142.084 152.148 143.063 153.638 144.156 155.043C145.032 156.175 146.036 157.291 147.376 157.803C148.716 158.315 150.1 158.251 150.808 157.327" fill="#0077B9"/>
<path d="M153.032 174.604C153.076 174.418 153.101 174.227 153.108 174.036C153.152 173.636 153.2 173.1 153.26 172.48C153.337 171.713 153.454 170.95 153.612 170.196C153.815 169.278 154.092 168.378 154.44 167.504C154.782 166.631 155.245 165.811 155.816 165.068C156.281 164.462 156.876 163.967 157.556 163.62C158.017 163.391 158.511 163.237 159.02 163.164C159.212 163.157 159.402 163.13 159.588 163.084C159.395 163.063 159.201 163.063 159.008 163.084C158.48 163.127 157.964 163.262 157.484 163.484C156.768 163.821 156.139 164.319 155.648 164.94C155.054 165.695 154.574 166.533 154.224 167.428C153.869 168.314 153.593 169.229 153.4 170.164C153.253 170.928 153.151 171.7 153.096 172.476C153.044 173.136 153.028 173.676 153.02 174.04C153.002 174.228 153.006 174.417 153.032 174.604Z" fill="#263238"/>
<path d="M153.136 173.408C153.147 173.32 153.147 173.231 153.136 173.144V172.4C153.136 171.744 153.136 170.8 153.168 169.6C153.228 167.252 153.428 164.728 153.82 161.168C154.188 157.82 154.684 153.924 155.208 151.392C155.32 150.816 155.432 150.296 155.54 149.844C155.648 149.392 155.728 148.996 155.812 148.68C155.896 148.364 155.94 148.136 155.988 147.944C156.009 147.857 156.025 147.769 156.036 147.68C155.995 147.759 155.965 147.842 155.944 147.928C155.884 148.12 155.812 148.36 155.724 148.656C155.636 148.952 155.524 149.36 155.412 149.812C155.3 150.264 155.168 150.78 155.044 151.356C154.402 154.355 153.92 157.386 153.6 160.436C153.2 164.004 153.032 167.236 153.02 169.604C153.02 170.78 153.02 171.732 153.06 172.404C153.06 172.712 153.092 172.964 153.104 173.16C153.107 173.243 153.118 173.326 153.136 173.408Z" fill="#263238"/>
<path d="M153.152 167.144C153.174 166.877 153.174 166.61 153.152 166.344C153.106 165.627 153.025 164.912 152.908 164.204C152.736 163.151 152.504 162.109 152.212 161.084C151.873 159.821 151.437 158.587 150.908 157.392C150.003 155.189 148.706 153.168 147.08 151.428C146.796 151.13 146.494 150.851 146.176 150.592C146.04 150.472 145.916 150.356 145.776 150.264L145.428 150.024C145.218 149.863 144.995 149.721 144.76 149.6C145.528 150.2 146.256 150.849 146.94 151.544C148.517 153.296 149.78 155.307 150.676 157.488C151.194 158.676 151.633 159.897 151.988 161.144C152.289 162.159 152.536 163.19 152.728 164.232C152.892 165.124 152.988 165.832 153.044 166.352C153.06 166.618 153.096 166.883 153.152 167.144Z" fill="#263238"/>
<path d="M147.096 178.195L147.724 186.795H158.776L159.4 178.195H147.096Z" fill="#263238"/>
<path d="M160.723 174.804H146.031V178.196H160.723V174.804Z" fill="#263238"/>
<path d="M146.031 186.468V187.404H146.719H160.475V186.468H146.031Z" fill="#455A64"/>
<path d="M147.396 189.059L146.72 187.403H159.952L159.16 189.059H147.396Z" fill="#455A64"/>
<path d="M159.2 181.004C159.2 181.004 159.2 181.036 159.148 181.084L158.984 181.304L158.34 182.128L158.312 182.164L158.284 182.124L156.704 179.94H156.8L155.24 182.144L155.192 182.212L155.136 182.148L153.292 179.948H153.396L153.296 180.076L151.644 182.144L151.592 182.216L151.54 182.144C150.98 181.344 150.456 180.608 149.98 179.94H150.072L148.156 182.124L148.12 182.164L148.092 182.12C147.84 181.696 147.64 181.356 147.492 181.112L147.34 180.844C147.32 180.814 147.304 180.782 147.292 180.748C147.292 180.748 147.316 180.772 147.356 180.832L147.528 181.092L148.156 182.08H148.096L149.984 179.868L150.032 179.812L150.076 179.872L151.648 182.068H151.54L153.2 180L153.304 179.872L153.356 179.804L153.408 179.868L155.252 182.072H155.148L156.72 179.876L156.764 179.812L156.812 179.876C157.432 180.768 157.964 181.524 158.36 182.088H158.3L158.972 181.288L159.152 181.08L159.2 181.004Z" fill="#E0E0E0"/>
<path d="M159.556 178.135C159.556 178.175 156.787 178.207 153.371 178.207C149.955 178.207 147.188 178.175 147.188 178.135C147.188 178.095 149.955 178.067 153.371 178.067C156.787 178.067 159.556 178.099 159.556 178.135Z" fill="#455A64"/>
<path d="M160.116 187.5C160.116 187.536 157.104 187.568 153.396 187.568C149.688 187.568 146.676 187.536 146.676 187.5C146.676 187.464 149.684 187.428 153.396 187.428C157.108 187.428 160.116 187.46 160.116 187.5Z" fill="#263238"/>
<path d="M51.1199 160.06C51.0879 160.096 50.8359 159.944 50.5559 159.72C50.2759 159.496 50.0719 159.284 50.1039 159.244C50.1359 159.204 50.3839 159.36 50.6639 159.584C50.9439 159.808 51.1479 160.02 51.1199 160.06Z" fill="#263238"/>
<path d="M58.8 148.604C58.9089 147.537 58.8208 146.459 58.54 145.424C58.204 144.404 57.42 143.472 56.372 143.252C55.172 143.004 53.948 143.76 53.276 144.784C52.604 145.808 52.376 147.048 52.176 148.252C50.8113 156.571 50.3086 165.009 50.676 173.432L55.572 174.12C57.704 165.332 58.4 157.648 58.8 148.604Z" fill="#455A64"/>
<path d="M55.6715 143.199L55.6475 143.279L55.5675 143.499L55.2395 144.347C55.1715 144.531 55.0795 144.747 55.0075 144.959L54.7715 145.699L54.4955 146.551L54.2435 147.523C53.8325 149.129 53.516 150.757 53.2955 152.399C53.0315 154.239 52.8595 156.279 52.7195 158.423C52.4715 162.715 52.4315 166.611 52.3195 169.427C52.2675 170.839 52.2195 171.979 52.1675 172.763C52.1395 173.163 52.1195 173.447 52.1035 173.671C52.1035 173.763 52.1035 173.843 52.1035 173.903C52.1035 173.963 52.1035 173.983 52.1035 173.983C52.1035 173.983 52.1035 173.959 52.1035 173.903C52.1035 173.847 52.1035 173.763 52.1035 173.667C52.1035 173.447 52.1035 173.143 52.1315 172.759C52.1635 171.959 52.1915 170.835 52.2275 169.423C52.3075 166.623 52.3275 162.711 52.5795 158.415C52.7155 156.267 52.8955 154.223 53.1675 152.375C53.3969 150.738 53.7269 149.116 54.1555 147.519L54.4195 146.547C54.5235 146.249 54.6195 145.965 54.7075 145.695L54.9635 144.955C55.0395 144.731 55.1355 144.531 55.2075 144.347L55.5675 143.515C55.6049 143.427 55.6369 143.355 55.6635 143.299C55.6606 143.266 55.6633 143.232 55.6715 143.199Z" fill="#263238"/>
<path d="M56.1241 143.22C56.3793 143.521 56.5821 143.863 56.7241 144.232C57.0984 145.243 57.2499 146.324 57.1681 147.4C57.0401 150.108 56.7961 153.836 56.4761 157.956C56.1561 162.076 55.7921 165.796 55.5041 168.488C55.3561 169.832 55.2321 170.92 55.1401 171.688C55.0921 172.052 55.0561 172.34 55.0281 172.552L54.9961 172.776C54.9979 172.801 54.9979 172.826 54.9961 172.852C54.9961 172.852 54.9961 172.828 54.9961 172.776C54.9961 172.724 54.9961 172.64 54.9961 172.548C54.9961 172.336 55.0401 172.048 55.0721 171.68C55.1481 170.912 55.2521 169.828 55.3801 168.48C55.6361 165.784 55.9761 162.08 56.3001 157.944C56.6241 153.808 56.8841 150.1 57.0441 147.4C57.1312 146.337 56.9949 145.267 56.6441 144.26C56.5018 143.898 56.3278 143.55 56.1241 143.22Z" fill="#263238"/>
<path d="M59.5196 155.896C59.1983 155.873 58.8839 155.791 58.5916 155.656C58.2809 155.575 57.987 155.44 57.7236 155.256C58.0453 155.277 58.3601 155.358 58.6516 155.496C58.9627 155.576 59.2567 155.711 59.5196 155.896Z" fill="#263238"/>
<path d="M60.1115 150.903C59.8462 151.115 59.5474 151.282 59.2275 151.395C58.9302 151.56 58.6068 151.672 58.2715 151.727C58.8324 151.348 59.455 151.069 60.1115 150.903Z" fill="#263238"/>
<path d="M59.8035 146.828C59.32 146.915 58.8224 146.881 58.3555 146.728C58.5921 146.66 58.8413 146.648 59.0835 146.692C59.3308 146.681 59.5772 146.728 59.8035 146.828Z" fill="#263238"/>
<path d="M54.7474 144.219C54.7074 144.243 54.4914 143.975 54.2714 143.623C54.1113 143.42 53.998 143.183 53.9395 142.931C53.9795 142.907 54.1955 143.171 54.4195 143.527C54.6435 143.883 54.7994 144.191 54.7474 144.219Z" fill="#263238"/>
<path d="M53.0794 146.683C52.8567 146.764 52.6178 146.788 52.3834 146.755C52.1477 146.778 51.9101 146.742 51.6914 146.651C51.9141 146.571 52.153 146.547 52.3874 146.579C52.6231 146.557 52.8608 146.593 53.0794 146.683Z" fill="#263238"/>
<path d="M51.8795 151.599C51.6235 151.589 51.3732 151.521 51.1475 151.399C50.9006 151.329 50.6724 151.205 50.4795 151.035C50.7355 151.045 50.9858 151.114 51.2115 151.235C51.4584 151.305 51.6866 151.43 51.8795 151.599Z" fill="#263238"/>
<path d="M51.7521 155.756C51.7521 155.804 51.4841 155.904 51.1281 155.976C50.7721 156.048 50.4801 156.076 50.4681 156.028C50.4561 155.98 50.7401 155.88 51.0921 155.808C51.3044 155.736 51.5312 155.718 51.7521 155.756Z" fill="#263238"/>
<path d="M51.1997 162.54C51.1997 162.588 50.9117 162.68 50.5357 162.748C50.3111 162.815 50.0736 162.826 49.8438 162.78C50.0455 162.659 50.2733 162.589 50.5077 162.576C50.7318 162.506 50.9697 162.494 51.1997 162.54Z" fill="#263238"/>
<path d="M50.7994 166.283C50.8234 166.323 50.5754 166.499 50.2474 166.683C49.9194 166.867 49.6354 166.963 49.6154 166.919C49.5954 166.875 49.8394 166.703 50.1674 166.519C50.4954 166.335 50.7994 166.239 50.7994 166.283Z" fill="#263238"/>
<path d="M53.8676 170.532C53.8276 170.556 53.6116 170.26 53.3876 169.868C53.2256 169.643 53.1137 169.387 53.0596 169.116C53.0996 169.092 53.3156 169.388 53.5396 169.78C53.7016 170.004 53.8135 170.26 53.8676 170.532Z" fill="#263238"/>
<path d="M54.7513 163.471C54.7833 163.503 54.5433 163.795 54.2153 164.119C53.8873 164.443 53.5913 164.675 53.5553 164.639C53.5193 164.603 53.7633 164.315 54.0913 163.991C54.4193 163.667 54.7153 163.435 54.7513 163.471Z" fill="#263238"/>
<path d="M54.5556 159.764C54.5196 159.8 54.2996 159.616 54.0596 159.364C53.8196 159.112 53.6596 158.868 53.6916 158.836C53.7236 158.804 53.9476 158.984 54.1876 159.236C54.4276 159.488 54.5916 159.732 54.5556 159.764Z" fill="#263238"/>
<path d="M55.1639 155.031C55.1999 155.063 54.9999 155.347 54.7159 155.659C54.4319 155.971 54.1759 156.207 54.1399 156.175C54.1039 156.143 54.3039 155.859 54.5839 155.543C54.8639 155.227 55.1279 154.999 55.1639 155.031Z" fill="#263238"/>
<path d="M55.504 151.599C55.468 151.635 55.192 151.415 54.88 151.111C54.568 150.807 54.348 150.531 54.38 150.495C54.412 150.459 54.692 150.679 55.004 150.987C55.316 151.295 55.536 151.563 55.504 151.599Z" fill="#263238"/>
<path d="M56.1755 146.952C56.1226 147.204 56.0147 147.442 55.8595 147.648C55.6475 148.008 55.4395 148.28 55.3995 148.256C55.3595 148.232 55.4955 147.92 55.7115 147.56C55.9275 147.2 56.1315 146.928 56.1755 146.952Z" fill="#263238"/>
<path d="M57.4355 142.648C57.4795 142.672 57.3555 142.984 57.1595 143.344C56.9635 143.704 56.7595 143.98 56.7275 143.96C56.7656 143.71 56.86 143.472 57.0035 143.264C57.1995 142.9 57.3915 142.628 57.4355 142.648Z" fill="#263238"/>
<path d="M58.8675 144.604C58.8875 144.648 58.6915 144.784 58.4275 144.912C58.1635 145.04 57.9355 145.104 57.9155 145.06C57.8955 145.016 58.0915 144.88 58.3555 144.752C58.6195 144.624 58.8475 144.56 58.8675 144.604Z" fill="#263238"/>
<path d="M58.8993 160.06C58.2349 160.011 57.6057 159.743 57.1113 159.296C57.4228 159.39 57.7242 159.515 58.0113 159.668C58.3199 159.768 58.6175 159.899 58.8993 160.06Z" fill="#263238"/>
<path d="M58.3159 163.332C58.3159 163.38 58.0319 163.476 57.6559 163.548C57.4324 163.619 57.1946 163.635 56.9639 163.592C57.1639 163.469 57.39 163.395 57.6239 163.376C57.9999 163.304 58.3079 163.284 58.3159 163.332Z" fill="#263238"/>
<path d="M57.5997 168.944C57.5717 168.984 57.1997 168.724 56.8557 168.292C56.6266 168.045 56.4654 167.744 56.3877 167.416C56.6112 167.654 56.8134 167.911 56.9917 168.184C57.2173 168.418 57.4208 168.673 57.5997 168.944Z" fill="#263238"/>
<path d="M49.7241 171.511C49.6921 171.475 49.8921 171.251 50.1681 171.015C50.4441 170.779 50.6961 170.615 50.7281 170.655C50.7601 170.695 50.5601 170.911 50.2841 171.151C50.0081 171.391 49.7561 171.547 49.7241 171.511Z" fill="#263238"/>
<path d="M47.4599 159.264C47.1399 158.268 46.5439 157.108 45.4999 157.092C45.1888 157.109 44.888 157.209 44.629 157.382C44.3701 157.555 44.1624 157.795 44.0279 158.076C43.7406 158.631 43.6027 159.251 43.6279 159.876C43.7568 164.309 44.5123 168.702 45.8719 172.924H49.6999C49.6536 168.283 48.8982 163.676 47.4599 159.264Z" fill="#455A64"/>
<path d="M40.5435 152.996C40.3541 152.063 39.8569 151.22 39.1316 150.604C38.4062 149.987 37.4948 149.632 36.5435 149.596C34.8515 149.892 34.1955 151.556 33.9955 153.26C33.7955 154.964 34.3235 156.66 34.8475 158.296C36.5222 163.544 38.1995 168.793 39.8795 174.044L44.6395 173.524C43.1515 166.492 42.2875 159.972 40.5435 152.996Z" fill="#455A64"/>
<path d="M45.4993 157.092C45.3755 157.262 45.2671 157.443 45.1753 157.632C44.9779 158.173 44.9161 158.754 44.9953 159.324C45.0673 160.052 45.1513 160.924 45.2753 161.884C45.3993 162.844 45.5713 163.884 45.7873 164.996C46.2193 167.196 46.7073 169.164 47.0153 170.596C47.1713 171.312 47.2913 171.896 47.3633 172.3C47.3953 172.488 47.4233 172.64 47.4433 172.768C47.4633 172.896 47.4673 172.932 47.4433 172.932C47.4225 172.881 47.4064 172.829 47.3953 172.776L47.2833 172.316C47.1793 171.888 47.0433 171.316 46.8833 170.624C46.5433 169.192 46.0353 167.228 45.6033 165.024C45.3873 163.92 45.2033 162.864 45.1033 161.896C45.0393 161.416 44.9993 160.952 44.9593 160.524C44.9193 160.096 44.8793 159.692 44.8593 159.324C44.7909 158.737 44.8735 158.142 45.0993 157.596C45.1945 157.401 45.3309 157.229 45.4993 157.092Z" fill="#263238"/>
<path d="M36.6313 149.46C36.4192 149.702 36.2266 149.96 36.0553 150.232C35.6172 150.992 35.3689 151.847 35.3313 152.724C35.3114 154.024 35.5102 155.318 35.9193 156.552C36.3193 157.968 36.7953 159.524 37.2793 161.152C38.2273 164.416 39.0833 167.368 39.7113 169.524L40.4313 172.068C40.5113 172.356 40.5713 172.584 40.6193 172.76C40.6455 172.839 40.6629 172.921 40.6713 173.004C40.6346 172.93 40.6052 172.852 40.5833 172.772C40.5313 172.596 40.4553 172.372 40.3673 172.084C40.1793 171.472 39.9153 170.612 39.5953 169.56L37.1113 161.2C36.6313 159.564 36.1793 158 35.7633 156.592C35.3558 155.34 35.1677 154.028 35.2073 152.712C35.2589 151.818 35.5339 150.952 36.0073 150.192C36.1735 149.915 36.3843 149.668 36.6313 149.46Z" fill="#263238"/>
<path d="M43.62 173.016C43.5798 172.942 43.5437 172.866 43.512 172.788C43.452 172.632 43.352 172.412 43.244 172.116C43.016 171.532 42.724 170.672 42.444 169.592C42.164 168.512 41.844 167.192 41.556 165.752C41.268 164.312 40.98 162.7 40.66 161.02C40.34 159.34 39.964 157.76 39.536 156.348C39.1647 155.092 38.7008 153.866 38.148 152.68C37.7723 151.881 37.3433 151.109 36.864 150.368C36.7 150.104 36.552 149.908 36.464 149.772C36.4139 149.704 36.3698 149.631 36.332 149.556C36.3907 149.615 36.4442 149.679 36.492 149.748C36.592 149.884 36.748 150.068 36.92 150.332C37.4259 151.061 37.874 151.829 38.26 152.628C38.8338 153.811 39.3113 155.039 39.688 156.3C40.1398 157.842 40.511 159.407 40.8 160.988C41.116 162.664 41.412 164.264 41.684 165.724C41.956 167.184 42.244 168.476 42.532 169.56C42.82 170.644 43.088 171.504 43.296 172.092C43.392 172.392 43.484 172.616 43.536 172.772C43.5731 172.85 43.6013 172.931 43.62 173.016Z" fill="#263238"/>
<path d="M34.952 157.512C34.952 157.556 34.704 157.66 34.372 157.74C34.04 157.82 33.764 157.848 33.756 157.8C33.748 157.752 34 157.652 34.332 157.572C34.664 157.492 34.94 157.464 34.952 157.512Z" fill="#263238"/>
<path d="M34.4477 154.264C34.1876 154.337 33.9173 154.367 33.6477 154.352C33.3816 154.389 33.111 154.381 32.8477 154.328C33.0968 154.209 33.3723 154.157 33.6477 154.176C33.9175 154.137 34.1928 154.167 34.4477 154.264Z" fill="#263238"/>
<path d="M34.9836 151.295C34.9516 151.335 34.6916 151.167 34.4076 150.923C34.1236 150.679 33.9116 150.451 33.9436 150.415C33.9756 150.379 34.2316 150.543 34.5196 150.787C34.8076 151.031 35.0156 151.259 34.9836 151.295Z" fill="#263238"/>
<path d="M36.4358 148.551C36.4838 148.551 36.4678 148.795 36.4638 149.071C36.4598 149.347 36.4638 149.583 36.4038 149.591C36.3438 149.599 36.2798 149.367 36.2878 149.067C36.2958 148.767 36.3998 148.539 36.4358 148.551Z" fill="#263238"/>
<path d="M39.4001 149.844C39.4401 149.872 39.3241 150.108 39.1401 150.368C38.9561 150.628 38.7761 150.82 38.7401 150.792C38.7041 150.764 38.8161 150.532 38.9961 150.268C39.1761 150.004 39.3601 149.816 39.4001 149.844Z" fill="#263238"/>
<path d="M41.3239 153.2C41.3239 153.248 41.0959 153.388 40.7759 153.52C40.4559 153.652 40.1759 153.72 40.1599 153.676C40.1439 153.632 40.3879 153.488 40.7079 153.36C41.0279 153.232 41.3079 153.144 41.3239 153.2Z" fill="#263238"/>
<path d="M42.492 156.628C42.2804 156.812 42.0183 156.927 41.74 156.96C41.4734 157.046 41.1879 157.056 40.916 156.988C41.1727 156.886 41.4417 156.819 41.716 156.788C41.9672 156.703 42.2278 156.65 42.492 156.628Z" fill="#263238"/>
<path d="M37.1318 155.651C37.0878 155.651 37.1318 155.399 37.2078 155.119C37.2838 154.839 37.4038 154.627 37.4478 154.643C37.4918 154.659 37.4478 154.895 37.3718 155.175C37.2958 155.455 37.1998 155.667 37.1318 155.651Z" fill="#263238"/>
<path d="M37.8799 159.971C37.8961 159.719 37.97 159.474 38.0959 159.255C38.2599 158.879 38.4279 158.591 38.4719 158.611C38.4557 158.863 38.3818 159.108 38.2559 159.327C38.0919 159.703 37.9239 159.999 37.8799 159.971Z" fill="#263238"/>
<path d="M36.0316 161.155C35.7959 161.15 35.5635 161.098 35.3476 161.003C34.9836 160.887 34.6876 160.783 34.6996 160.735C34.9377 160.705 35.1796 160.739 35.3996 160.835C35.7716 160.951 36.0516 161.111 36.0316 161.155Z" fill="#263238"/>
<path d="M37.0956 164.675C37.1236 164.715 36.9196 164.907 36.6436 165.107C36.3676 165.307 36.1116 165.435 36.0836 165.399C36.0556 165.363 36.2596 165.163 36.5396 164.963C36.8196 164.763 37.0676 164.635 37.0956 164.675Z" fill="#263238"/>
<path d="M37.9516 168.188C37.9516 168.232 37.7116 168.336 37.3876 168.412C37.0636 168.488 36.7956 168.516 36.7836 168.472C36.7716 168.428 37.0236 168.324 37.3476 168.244C37.6716 168.164 37.9396 168.14 37.9516 168.188Z" fill="#263238"/>
<path d="M42.5876 159.564C42.6116 159.604 42.3956 159.776 42.0836 159.892C41.7716 160.008 41.4916 160.024 41.4836 159.98C41.4756 159.936 41.7236 159.844 42.0196 159.728C42.3156 159.612 42.5636 159.52 42.5876 159.564Z" fill="#263238"/>
<path d="M43.248 165.024C43.228 165.068 42.972 164.992 42.676 164.852C42.38 164.712 42.156 164.564 42.176 164.52C42.196 164.476 42.456 164.556 42.752 164.692C43.048 164.828 43.272 164.98 43.248 165.024Z" fill="#263238"/>
<path d="M44.4194 168.935C44.1545 168.922 43.8954 168.852 43.6594 168.731C43.2594 168.575 42.9514 168.411 42.9674 168.363C43.231 168.377 43.4887 168.446 43.7234 168.567C44.1234 168.723 44.4354 168.887 44.4194 168.935Z" fill="#263238"/>
<path d="M38.14 171.999C38.116 171.955 38.428 171.747 38.788 171.463C39.148 171.179 39.428 170.923 39.464 170.959C39.5 170.995 39.272 171.303 38.896 171.599C38.6868 171.801 38.4247 171.94 38.14 171.999Z" fill="#263238"/>
<path d="M41.228 170C41.18 170 41.112 169.744 40.992 169.44C40.872 169.136 40.752 168.892 40.792 168.864C40.832 168.836 41.032 169.044 41.156 169.376C41.28 169.708 41.276 170 41.228 170Z" fill="#263238"/>
<path d="M40.3998 165.308C40.3718 165.348 40.1718 165.252 39.9518 165.096C39.7318 164.94 39.5798 164.78 39.6078 164.74C39.6358 164.7 39.8358 164.796 40.0558 164.952C40.2758 165.108 40.4398 165.268 40.3998 165.308Z" fill="#263238"/>
<path d="M47.5997 157.94C47.6277 157.98 47.4317 158.172 47.1637 158.368C46.8957 158.564 46.6557 158.696 46.6277 158.656C46.5997 158.616 46.7917 158.428 47.0597 158.228C47.3277 158.028 47.5997 157.9 47.5997 157.94Z" fill="#263238"/>
<path d="M48.6994 160.907C48.6994 160.955 48.3994 161.019 48.0234 160.979C47.6474 160.939 47.3634 160.811 47.3754 160.767C47.3874 160.723 47.6834 160.767 48.0434 160.803C48.4034 160.839 48.6954 160.859 48.6994 160.907Z" fill="#263238"/>
<path d="M44.0312 161.575C44.0312 161.619 43.7632 161.719 43.3952 161.743C43.0272 161.767 42.7392 161.707 42.7432 161.659C42.7472 161.611 43.0352 161.595 43.3872 161.571C43.7392 161.547 44.0232 161.527 44.0312 161.575Z" fill="#263238"/>
<path d="M44.4357 158.767C44.4357 158.815 44.1477 158.823 43.8357 158.675C43.5237 158.527 43.3437 158.315 43.3757 158.275C43.4077 158.235 43.6237 158.387 43.9077 158.515C44.1917 158.643 44.4397 158.719 44.4357 158.767Z" fill="#263238"/>
<path d="M49.0998 164.096C49.0758 164.136 48.7838 164 48.4478 163.788C48.1118 163.576 47.8638 163.388 47.8918 163.332C47.9198 163.276 48.2078 163.432 48.5438 163.64C48.8798 163.848 49.1278 164.056 49.0998 164.096Z" fill="#263238"/>
<path d="M60.4879 172.424H35.5879V176.836H60.4879V172.424Z" fill="#0077B9"/>
<path d="M37.4473 175.964L40.4753 189.152H55.3153L58.6273 175.964H37.4473Z" fill="#0077B9"/>
<path d="M60.4757 176.844C60.4757 176.892 54.8757 176.932 47.9317 176.932C40.9877 176.932 35.3877 176.892 35.3877 176.844C35.3877 176.796 40.9877 176.756 47.9317 176.756C54.8757 176.756 60.4757 176.8 60.4757 176.844Z" fill="#263238"/>
<path d="M46.6274 161.671C46.5874 161.695 46.4154 161.499 46.2474 161.227C46.0794 160.955 45.9754 160.715 46.0154 160.691C46.0554 160.667 46.2274 160.863 46.3954 161.135C46.5634 161.407 46.6674 161.643 46.6274 161.671Z" fill="#263238"/>
<path d="M46.6357 165.219C46.6237 164.989 46.669 164.76 46.7677 164.551C46.8837 164.195 47.0197 163.919 47.0637 163.935C47.076 164.167 47.0306 164.398 46.9317 164.607C46.7997 164.959 46.6837 165.235 46.6357 165.219Z" fill="#263238"/>
<path d="M47.8513 168.947C47.8073 168.971 47.6233 168.671 47.4513 168.283C47.3133 168.058 47.2259 167.806 47.1953 167.543C47.2393 167.519 47.4233 167.819 47.5953 168.207C47.7333 168.433 47.8207 168.685 47.8513 168.947Z" fill="#263238"/>
<path d="M45.2241 171.947C45.1881 171.915 45.3361 171.687 45.5561 171.431C45.7761 171.175 45.9801 170.999 46.0201 171.031C46.0601 171.063 45.9081 171.295 45.6881 171.547C45.4681 171.799 45.2601 171.999 45.2241 171.947Z" fill="#263238"/>
<path d="M44.672 166.503C44.672 166.551 44.424 166.547 44.136 166.503C43.848 166.459 43.624 166.375 43.632 166.327C43.64 166.279 43.88 166.283 44.164 166.327C44.448 166.371 44.68 166.455 44.672 166.503Z" fill="#263238"/>
<path d="M131.3 142.096H72.252V189.184H131.3V142.096Z" fill="#E0E0E0"/>
<g opacity="0.3">
<path d="M76.5518 142.191C83.5038 144.671 91.1718 145.203 98.6318 145.343C100.18 145.371 101.744 145.367 103.24 145.743C104.736 146.119 106.18 146.971 106.948 148.311C107.784 149.771 107.696 151.599 107.22 153.211C106.744 154.823 105.924 156.315 105.332 157.887C104.284 160.669 103.963 163.671 104.4 166.611C104.534 167.864 104.956 169.068 105.632 170.131C105.974 170.659 106.435 171.1 106.979 171.418C107.522 171.736 108.132 171.923 108.76 171.963C111.004 171.995 112.54 169.791 113.652 167.839C118.216 159.839 123.152 150.759 126.072 142.027L76.5518 142.191Z" fill="black"/>
</g>
<path d="M92.3716 188.932C92.3116 188.932 92.2676 178.496 92.2676 165.624C92.2676 152.752 92.3116 142.312 92.3716 142.312C92.4316 142.312 92.4756 152.748 92.4756 165.624C92.4756 178.5 92.4276 188.932 92.3716 188.932Z" fill="#455A64"/>
<path d="M116.568 107.295C116.392 106.119 112.88 102.239 112.88 102.239C112.88 102.239 111.128 95.1952 110.6 93.1192C110.424 92.519 110.167 91.9457 109.836 91.4152C108.594 89.3464 106.828 87.6422 104.716 86.4752L99.8558 83.7432L98.6958 81.1592L87.0238 75.1592L83.8598 80.7592C83.8598 80.7592 76.1758 83.1992 75.1598 84.9312C74.1438 86.6632 75.6638 110.051 75.6638 110.051C75.6638 110.051 72.4638 123.539 71.7718 126.331C71.0798 129.123 71.9878 132.451 71.9878 132.451L77.7118 125.271C79.4918 123.039 83.3958 122.011 86.1998 122.051L110.164 122.159L109.2 115.447L128.588 119.199C128.588 119.199 131.92 112.695 132.188 112.567C132.456 112.439 116.568 107.295 116.568 107.295Z" fill="#0077B9"/>
<path d="M86.5283 82.9397C86.3603 82.7677 87.8803 87.9077 89.7923 93.1437C90.8209 95.9732 91.3449 98.9612 91.3403 101.972V120.932L102.828 120.152L101.112 107.664C101.112 107.664 99.7123 99.6077 99.3203 96.5437C98.9603 93.7437 97.7203 86.1437 97.7203 86.1437C97.7203 86.1437 91.3403 87.8397 86.5283 82.9397Z" fill="white"/>
<path d="M112.024 111.999C112.006 111.903 112.006 111.804 112.024 111.707C112.051 111.446 112.101 111.187 112.176 110.935C112.419 110.094 112.87 109.328 113.488 108.707C114.109 108.089 114.875 107.635 115.716 107.387C115.968 107.313 116.227 107.262 116.488 107.235C116.583 107.217 116.681 107.217 116.776 107.235C116.776 107.271 116.376 107.315 115.76 107.527C114.961 107.802 114.235 108.255 113.638 108.854C113.041 109.452 112.589 110.179 112.316 110.979C112.104 111.599 112.06 111.999 112.024 111.999Z" fill="#263238"/>
<path d="M112.616 107.456C113.15 107.143 113.754 106.968 114.372 106.948C114.985 106.863 115.609 106.938 116.184 107.164C116.184 107.228 115.384 107.072 114.388 107.164C113.392 107.256 112.64 107.516 112.616 107.456Z" fill="#263238"/>
<g opacity="0.3">
<path d="M74.5078 117.804L73.5078 118.932C74.5505 120.219 75.9637 121.154 77.5558 121.612C79.1605 121.952 80.8001 122.1 82.4398 122.052C83.1041 122.084 83.7695 122.021 84.4158 121.864C85.0678 121.676 85.6718 121.308 86.3478 121.268C86.8012 121.27 87.2521 121.334 87.6878 121.46C88.1263 121.584 88.5898 121.591 89.0318 121.48C89.2506 121.421 89.4446 121.293 89.5851 121.115C89.7256 120.937 89.8051 120.718 89.8118 120.492C84.8252 119.034 79.6926 118.133 74.5078 117.804Z" fill="black"/>
</g>
<path d="M107.308 119.252L104.508 116.26L98.6878 114.8C98.6878 114.8 93.3758 116.4 93.2478 116.4C93.1198 116.4 88.6238 115.168 88.6238 115.168L87.0518 120.936L95.1518 121.492L104.4 121.12C104.4 121.12 104.884 120.672 104.596 120.364C104.308 120.056 106.144 120.884 106.36 120.892C106.576 120.9 106.992 121.068 107.28 120.724C107.476 120.468 107.74 119.712 107.308 119.252Z" fill="#FFBE9D"/>
<path d="M104.596 120.344C104.282 120.284 103.974 120.196 103.676 120.08C103.116 119.904 102.336 119.68 101.468 119.44C100.6 119.2 99.8001 119.04 99.2201 118.94C98.9028 118.898 98.5905 118.824 98.2881 118.72C98.6085 118.706 98.9294 118.73 99.2441 118.792C100.009 118.898 100.768 119.048 101.516 119.24C102.266 119.43 103.003 119.665 103.724 119.944C104.031 120.039 104.324 120.174 104.596 120.344Z" fill="#EB996E"/>
<path d="M107.308 119.251C106.872 119.141 106.442 119.008 106.02 118.851C105.22 118.587 104.128 118.259 102.9 117.919C101.672 117.579 100.584 117.191 99.7559 117.143C99.3099 117.121 98.8628 117.138 98.4199 117.195C98.5283 117.136 98.6459 117.095 98.7679 117.075C99.0949 117.005 99.4298 116.978 99.7639 116.995C100.62 116.995 101.764 117.359 102.964 117.719C104.164 118.079 105.292 118.411 106.076 118.715C106.476 118.863 106.776 118.999 106.992 119.095C107.104 119.132 107.211 119.184 107.308 119.251Z" fill="#EB996E"/>
<path d="M75.1598 84.9316C75.1598 84.9316 70.9798 87.8396 69.9598 92.0236C68.9398 96.2076 64.5359 113.308 65.4399 115.864C66.3439 118.42 83.9199 120.932 83.9199 120.932L86.0038 112.132L77.0759 109.688C77.0759 109.688 77.1918 101.548 77.3038 98.1756C77.4158 94.8036 75.1598 84.9316 75.1598 84.9316Z" fill="#0077B9"/>
<path d="M85.8919 113.456L88.7679 114.164L87.0359 120.796L84.2119 120.344L85.8919 113.456Z" fill="white"/>
<path d="M65.3762 114.96C65.3762 114.96 65.3762 115.108 65.4202 115.36C65.5174 115.747 65.731 116.094 66.0322 116.356C66.7962 117.068 68.2562 117.66 70.1042 117.992C70.9482 118.272 71.9122 118.492 72.9402 118.724C73.9682 118.956 75.0802 119.192 76.2482 119.428C78.5882 119.908 81.1762 120.412 83.9202 120.924L83.8002 121C83.9962 120.2 84.2002 119.324 84.4202 118.448C84.9122 116.448 85.3922 114.48 85.8442 112.628L85.9162 112.748L78.0002 110.504C76.9072 110.044 75.7246 109.836 74.5402 109.896C73.6401 109.946 72.7559 110.155 71.9282 110.512C71.4022 110.74 70.8998 111.018 70.4282 111.344L70.0642 111.608C70.0244 111.64 69.9815 111.668 69.9362 111.692C69.9362 111.692 69.9722 111.652 70.0482 111.588C70.1242 111.524 70.2402 111.424 70.4002 111.304C70.8648 110.959 71.365 110.666 71.8922 110.428C72.7251 110.05 73.6196 109.827 74.5322 109.768C75.7373 109.691 76.9441 109.891 78.0602 110.352L86.0002 112.576L86.0962 112.6L86.0722 112.696C85.6202 114.548 85.1442 116.5 84.6562 118.52C84.4402 119.392 84.2322 120.256 84.0322 121.068L84.0082 121.164H83.9122C81.1682 120.648 78.5842 120.136 76.2442 119.648C75.0762 119.404 73.9682 119.16 72.9362 118.92C71.9042 118.68 70.9362 118.452 70.0882 118.16C68.2162 117.804 66.7562 117.188 65.9842 116.44C65.6781 116.165 65.4679 115.799 65.3842 115.396C65.3554 115.252 65.3527 115.105 65.3762 114.96Z" fill="#263238"/>
<path d="M77.5634 110.284C77.5394 110.312 77.2394 110.036 76.7034 109.68C75.2997 108.74 73.6404 108.255 71.9514 108.292C71.3034 108.292 70.9074 108.38 70.8994 108.344C71.2345 108.223 71.5871 108.156 71.9434 108.148C73.6789 108.022 75.402 108.523 76.7994 109.56C77.0923 109.757 77.3505 110.002 77.5634 110.284Z" fill="#263238"/>
<path d="M78.736 95.9639C78.7507 96.1422 78.7507 96.3215 78.736 96.4999C78.736 96.8479 78.7 97.3439 78.652 97.9599C78.552 99.1879 78.372 100.88 78.048 102.736C77.7948 104.324 77.4245 105.891 76.94 107.424C76.844 107.716 76.74 107.98 76.656 108.224L76.4 108.8C76.325 108.964 76.2325 109.12 76.124 109.264C76.1742 109.092 76.2412 108.926 76.324 108.768C76.392 108.596 76.464 108.4 76.548 108.184C76.632 107.968 76.712 107.688 76.8 107.384C77.2372 105.845 77.5858 104.283 77.844 102.704C78.164 100.856 78.368 99.1719 78.504 97.9479C78.564 97.3679 78.616 96.8839 78.656 96.4999C78.6612 96.3186 78.6881 96.1387 78.736 95.9639Z" fill="#263238"/>
<path d="M88.9277 91.4312C88.9277 91.4312 88.8877 91.3232 88.7917 91.1352C88.6494 90.8687 88.4415 90.6429 88.1877 90.4792C87.9999 90.3503 87.7852 90.2661 87.5599 90.2328C87.3346 90.1995 87.1047 90.2181 86.8877 90.2872C86.6126 90.3813 86.3669 90.5456 86.1746 90.7638C85.9824 90.9819 85.8505 91.2464 85.7917 91.5312L85.7357 91.8152L85.6117 91.5512C85.1438 90.5471 84.7364 89.5159 84.3917 88.4632C83.7806 86.7096 83.4748 84.8641 83.4877 83.0072C83.4877 82.6512 83.5357 82.3312 83.5557 82.0472C83.5757 81.7632 83.6397 81.5272 83.6837 81.3352C83.7259 81.1333 83.7848 80.9353 83.8597 80.7432C83.7233 81.4905 83.647 82.2476 83.6317 83.0072C83.6646 84.8436 83.9873 86.6633 84.5877 88.3992C84.9327 89.4438 85.3333 90.4693 85.7877 91.4712L85.6077 91.4952C85.6767 91.1806 85.8272 90.8897 86.0442 90.6517C86.2611 90.4137 86.5368 90.2369 86.8437 90.1392C87.0818 90.0673 87.3334 90.0519 87.5785 90.0943C87.8236 90.1366 88.0555 90.2355 88.2557 90.3832C88.5155 90.5658 88.7203 90.8162 88.8477 91.1072C88.8827 91.1838 88.9082 91.2644 88.9237 91.3472C88.9317 91.3992 88.9357 91.4312 88.9277 91.4312Z" fill="#263238"/>
<path d="M98.6798 92.3312C98.637 92.1751 98.6062 92.016 98.5878 91.8552C98.5003 91.4142 98.4721 90.9636 98.5038 90.5152C98.5938 89.8253 98.9375 89.1936 99.4678 88.7432C99.7959 88.4733 100.207 88.3249 100.632 88.3232C100.863 88.3205 101.093 88.3681 101.304 88.4628C101.515 88.5574 101.704 88.6967 101.856 88.8712L101.68 88.9752L101.3 88.0192C100.552 86.1352 99.8878 84.4192 99.4158 83.1832L98.8678 81.7072C98.7916 81.531 98.734 81.3473 98.6958 81.1592C98.7943 81.3245 98.8773 81.4986 98.9438 81.6792C99.1038 82.0792 99.3078 82.5472 99.5558 83.1312C100.064 84.3592 100.756 86.0592 101.496 87.9312L101.872 88.8912L102.116 89.5072L101.716 88.9912C101.584 88.838 101.42 88.7156 101.235 88.6327C101.051 88.5497 100.85 88.5083 100.648 88.5112C100.267 88.5087 99.8971 88.6373 99.5998 88.8752C99.1 89.2931 98.7665 89.8764 98.6598 90.5192C98.6168 90.9573 98.6248 91.3989 98.6838 91.8352C98.7028 92.0001 98.7015 92.1666 98.6798 92.3312Z" fill="#263238"/>
<path d="M106.099 93.3232C106.155 93.3232 107.059 99.3952 108.119 106.903C109.179 114.411 109.987 120.503 109.931 120.503C109.875 120.503 108.971 114.431 107.911 106.903C106.851 99.3752 106.043 93.3312 106.099 93.3232Z" fill="#263238"/>
<g opacity="0.3">
<path d="M84.5117 88.5273C84.5604 90.0828 84.8981 91.6155 85.5077 93.0473C85.9437 92.5073 86.4277 91.9393 87.1077 91.7793C87.9317 91.5833 88.7677 92.0913 89.3637 92.7153C89.2605 92.0914 89.014 91.5 88.6437 90.9873C88.4589 90.7354 88.2183 90.5295 87.9407 90.3859C87.6632 90.2423 87.3562 90.1647 87.0437 90.1593C86.7323 90.1667 86.4322 90.2776 86.191 90.4747C85.9497 90.6718 85.7811 90.9436 85.7117 91.2473L84.5637 88.5553" fill="black"/>
</g>
<path d="M77.7557 92.9236C77.7197 92.9236 77.7317 92.5036 77.6117 91.8516C77.4474 91.002 77.1171 90.1933 76.6398 89.4716C76.371 89.0808 76.0641 88.7177 75.7237 88.3876C75.4417 88.1205 75.135 87.8808 74.8077 87.6716C74.2437 87.3156 73.8477 87.1796 73.8637 87.1436C73.9619 87.1506 74.0581 87.175 74.1477 87.2156C74.2597 87.2457 74.3683 87.2872 74.4717 87.3396C74.61 87.399 74.7437 87.4685 74.8717 87.5476C75.2197 87.7442 75.5455 87.9775 75.8437 88.2436C76.2025 88.5778 76.5231 88.9507 76.7997 89.3556C77.2955 90.0985 77.6182 90.9433 77.7437 91.8276C77.7836 92.0922 77.797 92.3602 77.7838 92.6276C77.7838 92.8196 77.7717 92.9236 77.7557 92.9236Z" fill="#263238"/>
<path d="M100.976 64.4001C100.748 62.2583 99.7213 60.2809 98.101 58.8615C96.4808 57.4421 94.3855 56.6848 92.2322 56.7401H91.7882C87.0082 57.1401 84.6802 61.4241 85.2162 66.1881L86.5282 82.9481L87.0842 83.6281C88.3324 85.1616 90.0529 86.2391 91.9774 86.6928C93.902 87.1464 95.9225 86.9507 97.7242 86.1361L97.3562 80.7441C97.3562 80.7441 101.94 79.9121 101.876 75.3121C101.848 73.0801 101.416 68.5121 100.976 64.4001Z" fill="#FFBE9D"/>
<path d="M97.3922 80.7318C95.258 80.7912 93.1517 80.2358 91.3242 79.1318C91.3242 79.1318 92.8242 82.4078 97.4042 81.8758L97.3922 80.7318Z" fill="#EB996E"/>
<path d="M99.5203 68.184C99.5248 68.3548 99.4633 68.5208 99.3486 68.6475C99.2339 68.7741 99.0747 68.8517 98.9043 68.864C98.8209 68.8722 98.7367 68.8638 98.6566 68.8392C98.5765 68.8146 98.5021 68.7744 98.4377 68.7208C98.3733 68.6672 98.3202 68.6013 98.2815 68.527C98.2428 68.4527 98.2193 68.3714 98.2123 68.288C98.2067 68.1169 98.2678 67.9503 98.3828 67.8234C98.4977 67.6965 98.6574 67.6193 98.8283 67.608C98.9117 67.5992 98.9961 67.6072 99.0764 67.6315C99.1568 67.6559 99.2314 67.6961 99.2959 67.7498C99.3604 67.8035 99.4135 67.8696 99.452 67.9442C99.4906 68.0187 99.5138 68.1003 99.5203 68.184Z" fill="#263238"/>
<path d="M99.8122 65.684C99.7602 65.764 99.2402 65.82 98.6122 66.156C97.9842 66.492 97.6162 66.912 97.5322 66.904C97.4482 66.896 97.5322 66.788 97.6882 66.6C97.9274 66.3347 98.2119 66.1139 98.5282 65.948C98.8301 65.7793 99.1613 65.6693 99.5042 65.624C99.7402 65.6 99.8402 65.644 99.8122 65.684Z" fill="#263238"/>
<path d="M92.8796 68.5316C92.8873 68.7033 92.8268 68.871 92.7115 68.9983C92.5961 69.1256 92.4352 69.2023 92.2636 69.2116C92.1802 69.2204 92.0958 69.2124 92.0155 69.188C91.9351 69.1637 91.8605 69.1234 91.796 69.0697C91.7315 69.0161 91.6784 68.95 91.6399 68.8754C91.6013 68.8008 91.5781 68.7193 91.5716 68.6356C91.5661 68.4645 91.6272 68.2979 91.7422 68.1711C91.8571 68.0442 92.0168 67.9669 92.1876 67.9556C92.2711 67.9468 92.3555 67.9548 92.4358 67.9792C92.5161 68.0036 92.5908 68.0438 92.6553 68.0975C92.7198 68.1512 92.7729 68.2173 92.8114 68.2918C92.85 68.3664 92.8732 68.4479 92.8796 68.5316Z" fill="#263238"/>
<path d="M92.7996 66.6478C92.7076 66.6478 92.2796 66.3798 91.5996 66.2118C90.9196 66.0438 90.3556 66.0798 90.2956 66.0238C90.2356 65.9678 90.3676 65.9438 90.6116 65.9238C90.968 65.9012 91.3258 65.9349 91.6716 66.0238C92.0065 66.1033 92.3256 66.2385 92.6156 66.4238C92.7756 66.5518 92.8236 66.6398 92.7996 66.6478Z" fill="#263238"/>
<path d="M95.5518 72.14C95.9224 72.0163 96.3064 71.9371 96.6958 71.904C96.8758 71.904 97.0438 71.84 97.0718 71.716C97.0831 71.5307 97.037 71.3463 96.9398 71.188L96.3678 69.824C95.5678 67.888 94.9998 66.292 95.0798 66.264C95.1598 66.236 95.8798 67.776 96.6518 69.712C96.8438 70.192 97.0278 70.648 97.1998 71.084C97.3179 71.2985 97.3575 71.5475 97.3118 71.788C97.2869 71.8526 97.2477 71.9106 97.1971 71.9577C97.1465 72.0048 97.0859 72.0398 97.0198 72.06C96.9212 72.0909 96.819 72.1084 96.7158 72.112C96.3306 72.1713 95.9394 72.1807 95.5518 72.14Z" fill="#263238"/>
<path d="M92.7997 63.9199C92.7197 64.1079 92.0197 63.9839 91.1997 64.0399C90.3797 64.0959 89.6837 64.2959 89.5997 64.1159C89.5517 64.0319 89.6797 63.8559 89.9557 63.6839C90.327 63.4726 90.7417 63.3491 91.1681 63.3227C91.5945 63.2964 92.0213 63.3679 92.4157 63.5319C92.6797 63.6719 92.8237 63.8279 92.7997 63.9199Z" fill="#263238"/>
<path d="M99.7961 64.0756C99.6401 64.2396 99.0321 64.0756 98.3041 64.0756C97.5761 64.0756 96.9561 64.1996 96.8121 64.0316C96.7481 63.9516 96.8441 63.7876 97.1121 63.6316C97.4816 63.4379 97.895 63.3428 98.3121 63.3556C98.7325 63.3527 99.1463 63.4603 99.5121 63.6676C99.7761 63.8316 99.8641 63.9996 99.7961 64.0756Z" fill="#263238"/>
<path d="M102.316 60.3117C102.275 60.1017 102.159 59.9138 101.99 59.7834C101.82 59.653 101.609 59.589 101.396 59.6037C101.626 59.5381 101.84 59.428 102.028 59.2797C102.121 59.2045 102.191 59.1046 102.23 58.9913C102.269 58.8781 102.275 58.7562 102.248 58.6397C102.128 58.2837 101.672 58.2077 101.312 58.1077C100.839 57.9703 100.42 57.691 100.112 57.3077C99.6757 56.7557 99.5077 56.0357 99.1277 55.4397C98.8823 55.0549 98.5537 54.7301 98.1661 54.4891C97.7785 54.2481 97.3419 54.0971 96.8882 54.0472C96.4346 53.9973 95.9755 54.0498 95.5449 54.2008C95.1142 54.3518 94.7229 54.5974 94.3997 54.9197C94.0468 54.5569 93.6123 54.2835 93.1325 54.1224C92.6527 53.9613 92.1414 53.9171 91.641 53.9934C91.1406 54.0696 90.6657 54.2643 90.2557 54.561C89.8457 54.8578 89.5125 55.2482 89.2837 55.6997C88.6701 55.4438 87.9989 55.3575 87.3406 55.45C86.6822 55.5425 86.0608 55.8103 85.5415 56.2254C85.0221 56.6405 84.6239 57.1875 84.3886 57.8093C84.1532 58.4311 84.0893 59.1047 84.2037 59.7597L87.0677 61.5156C87.0909 61.2978 87.1601 61.0874 87.2707 60.8983C87.3813 60.7093 87.5308 60.5458 87.7092 60.4188C87.8877 60.2917 88.0911 60.204 88.3059 60.1614C88.5208 60.1188 88.7423 60.1223 88.9557 60.1716C89.8197 60.4236 90.3717 61.4237 91.2677 61.4917C91.9677 61.5437 92.5637 61.0037 93.2397 60.8237C94.0597 60.6037 94.9277 60.9317 95.6677 61.3477C96.4077 61.7637 97.1157 62.2837 97.9397 62.4917C98.924 62.689 99.9455 62.567 100.856 62.1437C101.26 62.0019 101.628 61.7739 101.936 61.4757C102.087 61.326 102.201 61.1422 102.267 60.9397C102.333 60.7373 102.35 60.5219 102.316 60.3117Z" fill="#263238"/>
<path d="M87.5521 60.1634L100.672 60.0914C100.199 59.2096 99.5109 58.4613 98.6721 57.9154C96.9298 56.6423 94.8299 55.9521 92.6721 55.9434C90.5321 55.9434 86.2521 58.6914 84.7441 60.2074C83.5441 61.4074 83.5761 62.4434 83.5761 62.4434C83.4241 64.1474 84.4281 66.0434 84.8561 67.7114C85.0721 68.5674 85.5241 71.1594 85.5241 71.1594C86.2441 71.1394 86.4961 70.5554 86.3681 69.8434L86.1561 67.0434C86.864 66.4527 87.3599 65.6473 87.5686 64.7492C87.7772 63.8512 87.6871 62.9096 87.3121 62.0674C87.1321 61.8194 86.7001 60.6634 87.5521 60.1634Z" fill="#263238"/>
<path d="M85.9679 66.8593C85.2999 64.5393 84.6839 62.0593 85.3959 59.7393H84.9959L84.8359 59.8553C84.466 59.731 84.0662 59.7277 83.6943 59.8461C83.3225 59.9644 82.9981 60.1981 82.768 60.5132C82.538 60.8284 82.4144 61.2087 82.4151 61.5989C82.4157 61.9891 82.5407 62.3689 82.7719 62.6833C82.3818 62.6798 82.004 62.819 81.7093 63.0746C81.4147 63.3302 81.2235 63.6846 81.1719 64.0713C81.1732 64.61 81.3212 65.1382 81.5999 65.5993C81.8792 66.0617 82.0502 66.5813 82.0999 67.1193C82.1167 67.3871 82.0385 67.6523 81.8789 67.8682C81.7194 68.084 81.4889 68.2367 81.2279 68.2993C81.3543 68.5722 81.5709 68.7931 81.8412 68.925C82.1115 69.0569 82.419 69.0916 82.7119 69.0233C82.525 69.4792 82.213 69.8731 81.8119 70.1593C82.6679 70.7433 83.8399 70.5593 84.7679 70.0913C85.3436 69.8597 85.8136 69.4239 86.0879 68.8673C86.3439 68.2233 86.1519 67.5153 85.9679 66.8593Z" fill="#263238"/>
<path d="M85.7521 69.5679C85.6721 69.5359 82.5521 68.7159 82.7481 71.8559C82.9441 74.9959 86.0481 74.1679 86.0481 74.0759C86.0481 73.9839 85.7521 69.5679 85.7521 69.5679Z" fill="#FFBE9D"/>
<path d="M85.2956 72.9356C85.2956 72.9356 85.2436 72.9756 85.1516 73.0236C85.0273 73.0852 84.884 73.0967 84.7516 73.0556C84.4116 72.9516 84.1036 72.4436 84.0556 71.8756C84.0313 71.6042 84.0683 71.3308 84.1636 71.0756C84.1891 70.9746 84.2388 70.8814 84.3085 70.804C84.3783 70.7267 84.4658 70.6675 84.5636 70.6316C84.6256 70.6123 84.6925 70.6148 84.7529 70.6388C84.8133 70.6629 84.8637 70.7069 84.8956 70.7636C84.9436 70.8476 84.9236 70.9116 84.9436 70.9196C84.9636 70.9276 85.0076 70.8596 84.9756 70.7316C84.9498 70.6569 84.9025 70.5914 84.8396 70.5436C84.7952 70.5127 84.745 70.491 84.6921 70.48C84.6392 70.469 84.5846 70.4689 84.5316 70.4796C84.4042 70.513 84.2875 70.5783 84.1923 70.6692C84.0971 70.7602 84.0267 70.8739 83.9876 70.9996C83.8721 71.2806 83.8242 71.5847 83.8476 71.8876C83.9076 72.5196 84.2476 73.0876 84.7276 73.1996C84.8128 73.2183 84.901 73.218 84.9861 73.1986C85.0711 73.1793 85.1509 73.1414 85.2196 73.0876C85.2956 73.0116 85.3076 72.9396 85.2956 72.9356Z" fill="#EB996E"/>
<path d="M82.4923 66.9637C82.4923 66.9637 82.4043 66.8437 82.4323 66.5957C82.4657 66.4275 82.5358 66.2686 82.6374 66.1304C82.739 65.9921 82.8697 65.8779 83.0203 65.7957C83.4709 65.5811 83.9613 65.4626 84.4603 65.4477C84.7394 65.4477 85.0146 65.3818 85.2635 65.2553C85.5123 65.1288 85.7278 64.9453 85.8923 64.7197C86.1535 64.211 86.2407 63.6307 86.1403 63.0677C86.0643 62.5397 85.9243 62.0637 85.8563 61.6517C85.7296 61.2103 85.7365 60.7412 85.8763 60.3037C85.879 60.745 85.9286 61.1848 86.0243 61.6157C86.1123 62.0157 86.2683 62.4837 86.3643 63.0397C86.4851 63.6549 86.3919 64.2928 86.1003 64.8477C85.9268 65.1345 85.664 65.3566 85.3523 65.4797C85.0731 65.5833 84.781 65.6479 84.4843 65.6717C84.0112 65.6745 83.543 65.7668 83.1043 65.9437C82.9669 66.0143 82.8449 66.1115 82.7453 66.2296C82.6458 66.3477 82.5706 66.4844 82.5243 66.6317C82.5063 66.7416 82.4956 66.8525 82.4923 66.9637Z" fill="#455A64"/>
<path d="M81.732 65.5994C81.732 65.5994 81.664 65.5114 81.636 65.3154C81.6037 65.039 81.6582 64.7594 81.792 64.5154C81.8838 64.342 82.0105 64.1895 82.164 64.0674C82.3435 63.9327 82.5493 63.8373 82.768 63.7874C82.9802 63.7419 83.1822 63.6578 83.364 63.5394C83.4444 63.4675 83.5074 63.3783 83.5483 63.2785C83.5892 63.1787 83.6069 63.071 83.6 62.9634C83.6 62.7274 83.572 62.4754 83.58 62.2234C83.5833 61.9827 83.6101 61.7429 83.66 61.5074C83.7408 61.1095 83.894 60.7298 84.112 60.3874C84.1814 60.2617 84.281 60.1553 84.4018 60.0778C84.5226 60.0003 84.6609 59.9541 84.804 59.9434C85.012 59.9434 85.1 60.0394 85.092 60.0474C85.084 60.0554 84.988 60.0114 84.812 60.0474C84.6918 60.073 84.5791 60.1261 84.4826 60.2024C84.3862 60.2787 84.3087 60.3762 84.256 60.4874C84.0755 60.8229 83.9486 61.1846 83.88 61.5594C83.8413 61.7813 83.8212 62.0061 83.82 62.2314C83.82 62.4634 83.856 62.7114 83.844 62.9834C83.8499 63.1257 83.823 63.2676 83.7654 63.3979C83.7079 63.5283 83.6212 63.6437 83.512 63.7354C83.3055 63.8736 83.0726 63.9676 82.828 64.0114C82.6459 64.0425 82.4724 64.1121 82.3193 64.2156C82.1662 64.3191 82.0369 64.454 81.94 64.6114C81.7757 64.9133 81.7034 65.2568 81.732 65.5994Z" fill="#455A64"/>
<path d="M100.116 57.3073C100.136 57.3073 99.8799 57.4793 99.4679 57.2873C99.2359 57.1615 99.0329 56.9884 98.8719 56.7793C98.6736 56.5192 98.4263 56.3004 98.1439 56.1353C97.7766 55.9288 97.3572 55.8336 96.9367 55.8613C96.5163 55.889 96.1129 56.0384 95.7759 56.2913C95.3759 56.5713 95.0439 56.9673 94.5759 57.2953C94.338 57.4718 94.0653 57.5959 93.7759 57.6593C93.4764 57.7118 93.1683 57.6828 92.8839 57.5753C92.3159 57.3713 91.8679 57.0233 91.3799 56.8473C90.909 56.6665 90.4083 56.5756 89.9039 56.5793C89.035 56.5782 88.1905 56.8668 87.5039 57.3993C87.0453 57.7576 86.6642 58.2053 86.3839 58.7153C86.1879 59.0793 86.1159 59.3033 86.0959 59.2953C86.0759 59.2873 86.0959 59.2353 86.1279 59.1273C86.1732 58.9716 86.2293 58.8192 86.2959 58.6713C86.5543 58.1266 86.9299 57.6458 87.3959 57.2633C88.0979 56.6894 88.9732 56.3695 89.8799 56.3553C90.4137 56.3414 90.9451 56.4325 91.4439 56.6233C91.9719 56.8153 92.4279 57.1633 92.9439 57.3433C93.1884 57.4375 93.4537 57.4637 93.7119 57.4193C93.9623 57.3619 94.198 57.2529 94.4039 57.0993C94.8239 56.7993 95.1759 56.4033 95.6039 56.1073C95.9996 55.8109 96.4815 55.6521 96.9759 55.6553C97.3976 55.6584 97.8112 55.7715 98.1759 55.9833C98.468 56.1696 98.7219 56.4099 98.9239 56.6913C99.064 56.8968 99.2452 57.0712 99.4559 57.2033C99.6544 57.3214 99.8907 57.3586 100.116 57.3073Z" fill="#455A64"/>
<path d="M93.8078 72.9639C93.9078 72.9639 94.0198 73.6119 94.6758 73.9919C95.3318 74.3719 96.0318 74.1799 96.0558 74.2719C96.0798 74.3639 95.9158 74.4319 95.6158 74.4879C95.2237 74.5607 94.8186 74.4927 94.4718 74.2959C94.1396 74.1036 93.8935 73.7917 93.7838 73.4239C93.7118 73.1479 93.7598 72.9679 93.8078 72.9639Z" fill="#263238"/>
<path d="M135.2 135.463C133.982 134.417 132.402 133.891 130.8 133.999L128.096 142.587C130.076 142.675 132.052 143.695 133.964 143.171C134.727 142.936 135.408 142.487 135.924 141.877C136.441 141.268 136.772 140.523 136.88 139.731C136.963 138.937 136.854 138.135 136.561 137.392C136.269 136.649 135.802 135.988 135.2 135.463Z" fill="#0077B9"/>
<path d="M130.832 133.804C130.832 133.736 131.124 133.68 131.632 133.684C132.388 133.698 133.136 133.84 133.844 134.104C134.926 134.525 135.863 135.252 136.54 136.196C136.954 136.755 137.259 137.388 137.44 138.06C137.636 138.795 137.658 139.566 137.504 140.312C137.355 141.067 137.018 141.773 136.524 142.364C136.051 142.902 135.452 143.314 134.78 143.564C133.689 143.95 132.512 144.026 131.38 143.784C130.652 143.641 129.941 143.42 129.26 143.124C128.784 142.92 128.532 142.768 128.556 142.7C128.58 142.632 128.868 142.652 129.356 142.736C129.844 142.82 130.584 142.976 131.464 143.056C132.462 143.166 133.472 143.029 134.404 142.656C134.915 142.44 135.368 142.105 135.724 141.68C136.098 141.215 136.353 140.665 136.468 140.08C136.578 139.499 136.57 138.903 136.444 138.325C136.318 137.748 136.078 137.202 135.736 136.72C135.185 135.885 134.427 135.207 133.536 134.752C132.905 134.454 132.244 134.223 131.564 134.064C131.104 133.96 130.824 133.876 130.832 133.804Z" fill="#F5F5F5"/>
<path d="M105.779 166.023L99.8994 182.499L120.359 189.919C120.951 187.919 111.787 180.159 111.787 180.159L115.987 169.759L105.779 166.023Z" fill="#0077B9"/>
<g opacity="0.6">
<path d="M105.784 176.98C105.565 176.968 105.35 177.038 105.179 177.175C105.009 177.312 104.895 177.508 104.86 177.724C104.84 177.941 104.905 178.158 105.04 178.329C105.176 178.5 105.372 178.613 105.588 178.644C105.821 178.656 106.05 178.581 106.231 178.433C106.412 178.285 106.53 178.075 106.564 177.844C106.564 177.408 106.132 176.908 105.7 176.968" fill="white"/>
</g>
<path d="M99.8994 182.5L100.495 180.84L119.927 188.592C119.927 188.592 120.695 189.316 120.359 189.92L99.8994 182.5Z" fill="white"/>
<path d="M112.16 180.176C112.12 180.276 111.604 180.14 110.996 180.284C110.388 180.428 109.972 180.752 109.896 180.684C109.82 180.616 110.176 180.088 110.916 179.928C111.656 179.768 112.212 180.092 112.16 180.176Z" fill="#263238"/>
<path d="M114 181.844C114 181.948 113.492 181.96 113 182.244C112.508 182.528 112.248 182.956 112.148 182.916C112.048 182.876 112.192 182.288 112.812 181.924C113.432 181.56 114 181.748 114 181.844Z" fill="#263238"/>
<path d="M114.268 184.852C114.172 184.852 114.212 184.292 114.668 183.836C115.124 183.38 115.668 183.336 115.68 183.436C115.692 183.536 115.3 183.72 114.932 184.1C114.564 184.48 114.372 184.88 114.268 184.852Z" fill="#263238"/>
<path d="M112.852 177.699C112.776 177.775 112.368 177.471 111.792 177.299C111.216 177.127 110.708 177.151 110.688 177.047C110.668 176.943 111.216 176.739 111.888 176.947C112.56 177.155 112.932 177.639 112.852 177.699Z" fill="#263238"/>
<path d="M113.244 175.095C112.876 175.063 112.524 174.933 112.224 174.719C111.877 174.521 111.557 174.279 111.272 173.999C111.101 173.836 110.942 173.661 110.796 173.475C110.703 173.37 110.628 173.252 110.572 173.123C110.531 173.029 110.524 172.923 110.551 172.824C110.578 172.725 110.637 172.637 110.72 172.575C110.795 172.524 110.881 172.491 110.971 172.478C111.061 172.466 111.153 172.474 111.24 172.503C111.369 172.55 111.492 172.615 111.604 172.695C111.804 172.829 111.991 172.98 112.164 173.147C112.453 173.428 112.696 173.752 112.884 174.107C113.089 174.419 113.194 174.786 113.184 175.159C113.128 175.159 113.008 174.779 112.66 174.239C112.453 173.929 112.209 173.645 111.932 173.395C111.768 173.249 111.593 173.115 111.408 172.995C111.212 172.859 111.028 172.791 110.94 172.867C110.852 172.943 110.896 172.911 110.92 172.991C110.961 173.086 111.017 173.173 111.084 173.251C111.215 173.429 111.358 173.597 111.512 173.755C111.771 174.029 112.057 174.277 112.364 174.495C112.892 174.875 113.268 175.043 113.244 175.095Z" fill="#263238"/>
<path d="M113.064 175.2C112.977 174.837 113.008 174.456 113.152 174.112C113.273 173.726 113.458 173.364 113.7 173.04C113.845 172.849 114.007 172.673 114.184 172.512C114.289 172.397 114.422 172.311 114.57 172.262C114.717 172.213 114.875 172.203 115.028 172.232C115.118 172.268 115.197 172.328 115.254 172.407C115.311 172.486 115.345 172.579 115.352 172.676C115.359 172.81 115.349 172.944 115.32 173.076C115.257 173.4 115.13 173.709 114.945 173.984C114.761 174.259 114.524 174.494 114.248 174.676C113.656 175.076 113.196 175.028 113.2 174.992C113.204 174.956 113.6 174.864 114.096 174.464C114.378 174.234 114.607 173.946 114.768 173.62C114.861 173.43 114.927 173.228 114.964 173.02C115.012 172.792 114.992 172.584 114.904 172.58C114.814 172.576 114.724 172.593 114.641 172.628C114.558 172.663 114.484 172.716 114.424 172.784C114.258 172.924 114.105 173.079 113.968 173.248C113.733 173.534 113.542 173.854 113.4 174.196C113.152 174.8 113.124 175.2 113.064 175.2Z" fill="#263238"/>
<path d="M85.9597 122.024C82.8557 122.096 79.9117 122.532 77.7717 124.784C74.9357 127.772 71.4317 132.024 71.2317 134.972C70.9357 139.372 73.5957 140.692 75.5357 141.772C76.3938 142.236 77.3608 142.461 78.3357 142.424L114.208 142.152L115.332 136.076L92.1317 130.356L93.0957 121.624L85.9597 122.024Z" fill="#263238"/>
<path d="M93.1156 121.62L104.4 121.1C104.4 121.1 123.896 122.184 128.052 125.996C132.208 129.808 131.692 134.14 130.304 138.296C128.916 142.452 116.704 169.048 116.704 169.048C116.704 169.048 117.696 170.74 117.14 172.428C116.915 173.167 116.501 173.835 115.94 174.367C115.379 174.898 114.69 175.275 113.94 175.46L103.092 171.46C103.092 171.46 101.62 170.94 102.66 169.552C103.7 168.164 104.392 167.908 104.392 167.908V165.136C104.392 165.136 108.204 158.204 108.548 157.252C108.892 156.3 112.548 142.196 112.548 142.196L114.976 138.024C114.976 138.024 109.108 135.264 104.02 133.264L92.1396 130.336L93.1156 121.62Z" fill="#263238"/>
<path d="M111.419 170.971C111.091 170.78 110.773 170.572 110.467 170.347C108.935 169.354 107.209 168.698 105.403 168.423C105.025 168.386 104.648 168.33 104.275 168.255C104.656 168.211 105.041 168.218 105.419 168.275C107.27 168.473 109.037 169.145 110.551 170.227C110.872 170.436 111.164 170.686 111.419 170.971Z" fill="#455A64"/>
<path d="M116.839 169.068C116.603 168.874 116.392 168.651 116.211 168.404C115.843 167.976 115.355 167.368 114.847 166.672C114.339 165.976 113.899 165.332 113.599 164.856C113.421 164.607 113.27 164.338 113.151 164.056C113.366 164.273 113.557 164.513 113.719 164.772L115.015 166.548C115.499 167.204 115.943 167.796 116.327 168.312C116.525 168.544 116.697 168.798 116.839 169.068Z" fill="#455A64"/>
<path d="M120.8 134.231C120.8 134.263 120.4 134.351 119.772 134.559C118.127 135.102 116.637 136.032 115.428 137.271C115.192 137.544 114.942 137.804 114.68 138.051C114.849 137.728 115.064 137.432 115.32 137.171C115.902 136.514 116.575 135.944 117.32 135.479C118.064 135.011 118.872 134.654 119.72 134.419C120.068 134.303 120.432 134.239 120.8 134.231Z" fill="#455A64"/>
<path d="M109.72 153.064C109.724 152.983 109.739 152.904 109.764 152.828L109.932 152.168L110.58 149.748L112.8 141.784C113.252 140.228 113.636 138.748 114.072 137.404C114.532 136.236 115.228 135.175 116.116 134.288C116.702 133.686 117.351 133.15 118.052 132.688C118.304 132.528 118.5 132.408 118.64 132.336C118.707 132.293 118.778 132.257 118.852 132.228C118.852 132.228 118.58 132.412 118.1 132.752C117.422 133.235 116.793 133.783 116.22 134.388C115.363 135.271 114.694 136.319 114.252 137.468C113.852 138.792 113.452 140.292 113 141.84L110.724 149.784C110.428 150.78 110.184 151.592 110.008 152.184C109.924 152.448 109.86 152.664 109.804 152.832C109.786 152.912 109.758 152.99 109.72 153.064Z" fill="#455A64"/>
<path d="M99.7397 132.748C99.6797 132.748 99.4437 130.644 99.2077 128.036C98.9717 125.428 98.8077 123.308 98.8877 123.304C98.9677 123.3 99.1797 125.408 99.4157 128.016C99.6517 130.624 99.7957 132.744 99.7397 132.748Z" fill="#455A64"/>
<path d="M80.956 138.4C80.924 138.4 80.752 138.076 80.396 137.576C79.9364 136.926 79.3854 136.345 78.76 135.852C78.1297 135.365 77.4334 134.971 76.692 134.68C76.12 134.456 75.748 134.372 75.756 134.336C76.0927 134.352 76.4248 134.421 76.74 134.54C78.3043 135.056 79.6405 136.099 80.52 137.492C80.7142 137.769 80.8615 138.075 80.956 138.4Z" fill="#455A64"/>
<path d="M87.8676 130.72C87.8676 130.752 87.3716 130.448 86.5436 130.068C84.3711 129.081 81.9615 128.736 79.5996 129.076C78.6996 129.204 78.1516 129.364 78.1436 129.328C78.2599 129.262 78.3852 129.213 78.5156 129.184C78.8632 129.076 79.2172 128.991 79.5756 128.928C81.9645 128.508 84.4249 128.861 86.5996 129.936C86.9256 130.096 87.2409 130.278 87.5436 130.48C87.6622 130.544 87.7712 130.625 87.8676 130.72Z" fill="#455A64"/>
<path d="M114.892 136.064C114.796 136.059 114.7 136.043 114.608 136.016L113.808 135.844L110.888 135.2C108.42 134.648 105.004 133.904 101.216 133.156C97.4279 132.408 93.9879 131.788 91.4959 131.36L88.5399 130.852L87.7399 130.712C87.6454 130.7 87.5527 130.678 87.4639 130.644C87.5589 130.646 87.6537 130.654 87.7479 130.668L88.5479 130.772C89.2479 130.868 90.2599 131.02 91.5119 131.216C94.0119 131.616 97.4599 132.2 101.252 132.952C105.044 133.704 108.452 134.468 110.916 135.056C112.144 135.352 113.14 135.6 113.824 135.78L114.624 135.988C114.715 136.005 114.805 136.03 114.892 136.064Z" fill="#455A64"/>
<path d="M92.1516 131.379C92.1116 131.379 92.0276 130.907 91.6556 130.235C91.438 129.847 91.1689 129.491 90.8556 129.175C90.4606 128.786 90.0411 128.423 89.5996 128.087C88.7862 127.486 87.9262 126.951 87.0276 126.487C86.6475 126.306 86.2811 126.098 85.9316 125.863C86.3342 125.991 86.7239 126.155 87.0956 126.355C88.0239 126.786 88.9058 127.31 89.7276 127.919C90.1751 128.261 90.5975 128.634 90.9916 129.035C91.3129 129.368 91.5825 129.747 91.7916 130.159C91.9354 130.438 92.0442 130.734 92.1156 131.039C92.1486 131.149 92.1608 131.265 92.1516 131.379Z" fill="#455A64"/>
<path d="M132.108 136.8C132.152 136.848 131.552 137.452 131.084 138.376C130.616 139.3 130.464 140.132 130.404 140.12C130.403 139.473 130.574 138.838 130.9 138.28C131.165 137.689 131.582 137.178 132.108 136.8Z" fill="#263238"/>
<g opacity="0.3">
<path d="M106.432 95.8154L109 113.903L109.128 114.191C109.73 107.938 108.805 101.632 106.432 95.8154Z" fill="black"/>
</g>
<path d="M120.26 106.207L111.912 120.799L91.3401 121.247L91.2881 122.179L111.208 122.031L111.84 122.007L132.872 122.051L137.124 114.719L142.556 106.935C142.635 106.82 142.68 106.685 142.688 106.546C142.696 106.406 142.665 106.267 142.6 106.144C142.534 106.02 142.436 105.917 142.317 105.845C142.197 105.773 142.06 105.735 141.92 105.735L120.924 105.815C120.789 105.816 120.656 105.853 120.539 105.922C120.423 105.991 120.326 106.089 120.26 106.207Z" fill="#E0E0E0"/>
<path d="M137.124 114.731C137.124 114.731 138.204 115.723 138.036 116.563C137.868 117.403 137.92 118.031 137.124 118.087C137.139 118.395 137.035 118.696 136.834 118.929C136.633 119.162 136.35 119.309 136.044 119.339C136.044 119.339 136.288 120.659 134.752 120.887C134.752 120.887 134.28 122.299 133.312 121.955C132.754 121.766 132.218 121.518 131.712 121.215L131.428 120.703C131.428 120.703 130 120.167 130.352 119.363C130.568 118.875 131.304 118.747 131.304 118.747C131.219 118.547 131.183 118.329 131.199 118.112C131.215 117.895 131.283 117.685 131.396 117.499C131.736 117.039 132.848 117.419 132.848 117.419C132.825 117.026 132.95 116.637 133.2 116.331C133.6 115.879 135.352 117.099 135.352 117.099L136.316 115.947L137.124 114.731Z" fill="#FFBE9D"/>
<path d="M134.752 120.888C134.128 120.622 133.533 120.294 132.976 119.908C132.382 119.58 131.824 119.192 131.312 118.748C131.935 119.016 132.53 119.346 133.088 119.732C133.68 120.06 134.237 120.448 134.752 120.888Z" fill="#EB996E"/>
<path d="M136.043 119.34C135.463 119.112 134.91 118.819 134.395 118.468C133.845 118.176 133.329 117.825 132.855 117.42C133.437 117.646 133.99 117.939 134.503 118.292C135.054 118.584 135.57 118.935 136.043 119.34Z" fill="#EB996E"/>
<path d="M134.284 116.443C134.316 116.383 134.976 116.731 135.744 117.219C136.22 117.494 136.678 117.799 137.116 118.131C137.088 118.199 136.4 117.887 135.632 117.395C135.151 117.126 134.699 116.807 134.284 116.443Z" fill="#EB996E"/>
<path d="M142.556 106.295C142.523 106.301 142.489 106.301 142.456 106.295H142.16H141.024L136.848 106.327L123.068 106.359H122.064C121.916 106.345 121.767 106.371 121.633 106.434C121.498 106.498 121.383 106.596 121.3 106.719C120.98 107.29 120.668 107.853 120.364 108.407L118.588 111.607L115.576 117.019C114.72 118.547 114.02 119.787 113.528 120.663C113.292 121.063 113.1 121.407 112.964 121.647L112.812 121.899L112.756 121.983C112.756 121.983 112.756 121.947 112.792 121.887L112.928 121.623L113.46 120.623L115.46 116.947L118.436 111.511C118.996 110.491 119.588 109.419 120.196 108.311L121.136 106.611C121.238 106.459 121.379 106.337 121.544 106.257C121.71 106.177 121.893 106.142 122.076 106.155H123.08L136.86 106.183L141.036 106.219L142.172 106.239H142.468C142.5 106.253 142.53 106.272 142.556 106.295Z" fill="#263238"/>
<path d="M127.756 113.636C127.659 113.776 127.604 113.942 127.599 114.113C127.594 114.283 127.638 114.452 127.726 114.598C127.814 114.745 127.942 114.863 128.096 114.938C128.249 115.013 128.421 115.042 128.591 115.022C128.76 115.002 128.92 114.934 129.052 114.825C129.184 114.716 129.281 114.572 129.333 114.409C129.385 114.246 129.388 114.072 129.343 113.907C129.299 113.742 129.207 113.594 129.08 113.48C128.883 113.326 128.634 113.257 128.386 113.286C128.138 113.315 127.912 113.441 127.756 113.636Z" fill="white"/>
<g opacity="0.3">
<path d="M69.3556 107.999C69.1796 108.071 68.9756 108.191 68.9756 108.399C68.982 108.477 69.0143 108.549 69.0673 108.606C69.1203 108.663 69.1909 108.7 69.2676 108.711C69.561 108.67 69.8484 108.593 70.1236 108.483C72.2876 108.007 74.0676 108.463 76.1236 109.283L76.1916 109.215C75.3756 107.443 71.6836 107.051 69.3556 107.999Z" fill="black"/>
</g>
<path d="M180.8 189.2C180.8 189.256 144.62 189.304 100 189.304C55.3802 189.304 19.2002 189.24 19.2002 189.2C19.2002 189.16 55.3722 189.096 100 189.096C144.628 189.096 180.8 189.124 180.8 189.2Z" fill="#263238"/>
<path d="M58.1679 61.6838C58.2359 61.7518 71.5199 57.1878 71.5199 57.1878L66.3999 45.4678L54.5879 49.9998L61.0919 53.7358L58.1679 61.6838Z" fill="#455A64"/>
<path d="M64.3994 48.9955V33.0395C64.3994 33.0395 82.7234 29.6875 95.9274 29.8875C109.131 30.0875 122.727 32.2515 122.727 32.2515V47.5715C122.727 47.5715 81.3434 43.8755 64.3994 48.9955Z" fill="#455A64"/>
<path d="M64.3037 49.0113L71.5037 57.2553V47.5713C71.5037 47.5713 65.4837 48.2913 64.3037 49.0113Z" fill="#263238"/>
<path d="M64.3999 33.0352C64.4599 33.0352 64.4839 36.6352 64.4599 41.0352C64.4359 45.4352 64.3639 49.0352 64.3079 49.0352C64.2519 49.0352 64.2239 45.4592 64.2479 41.0352C64.2719 36.6112 64.3399 33.0352 64.3999 33.0352Z" fill="#263238"/>
<path d="M128.928 60.4593C128.86 60.5273 115.576 55.9633 115.576 55.9633L120.684 44.2393L132.508 48.7633L126 52.4993L128.928 60.4593Z" fill="#455A64"/>
<path d="M122.8 47.7879L115.6 56.0319V47.0479C118.014 47.1305 120.419 47.3777 122.8 47.7879Z" fill="#263238"/>
<path d="M122.72 32.252C122.776 32.252 122.84 35.728 122.86 40.02C122.88 44.312 122.86 47.788 122.792 47.788C122.724 47.788 122.672 44.312 122.652 40.02C122.632 35.728 122.66 32.252 122.72 32.252Z" fill="#263238"/>
<path d="M74.7317 40.0351C74.694 39.5757 74.7925 39.1154 75.0149 38.7117C75.2374 38.3081 75.5739 37.9789 75.9824 37.7655C76.3909 37.5521 76.8533 37.4638 77.3117 37.5117C77.7701 37.5597 78.2042 37.7417 78.5597 38.0351L77.9997 38.7071C77.849 38.5695 77.6697 38.467 77.4747 38.4068C77.2797 38.3466 77.0738 38.3303 76.8717 38.3591C76.5131 38.409 76.1891 38.5992 75.9708 38.888C75.7525 39.1768 75.6579 39.5405 75.7077 39.8991C75.7576 40.2577 75.9478 40.5817 76.2367 40.8C76.5255 41.0183 76.8892 41.113 77.2477 41.0631C77.4511 41.0364 77.6458 40.9642 77.8175 40.8521C77.9892 40.7399 78.1335 40.5906 78.2397 40.4151L78.9437 40.9071C78.6829 41.2865 78.3159 41.5806 77.8888 41.7525C77.4616 41.9243 76.9932 41.9663 76.5423 41.8733C76.0913 41.7802 75.6779 41.5561 75.3537 41.2291C75.0295 40.9022 74.809 40.4868 74.7197 40.0351H74.7317Z" fill="white"/>
<path d="M79.0962 39.4354C79.0217 38.9736 79.0876 38.5001 79.2854 38.0761C79.4831 37.6522 79.8035 37.2974 80.2052 37.0576C80.6069 36.8179 81.0713 36.7043 81.5383 36.7315C82.0053 36.7587 82.4533 36.9255 82.8244 37.2102C83.1956 37.495 83.4726 37.8846 83.6198 38.3286C83.767 38.7727 83.7774 39.2507 83.6498 39.7007C83.5222 40.1507 83.2625 40.5521 82.9042 40.8528C82.5459 41.1536 82.1055 41.3398 81.6402 41.3874C81.3438 41.4347 81.041 41.4211 80.7501 41.3473C80.4592 41.2736 80.1863 41.1414 79.9482 40.9587C79.7101 40.776 79.5118 40.5467 79.3653 40.2848C79.2188 40.0229 79.1272 39.7339 79.0962 39.4354ZM82.7402 39.0594C82.7077 38.7999 82.5995 38.5556 82.4291 38.3572C82.2587 38.1588 82.0336 38.0149 81.782 37.9435C81.5303 37.8721 81.2632 37.8764 81.014 37.9559C80.7648 38.0353 80.5445 38.1863 80.3806 38.3902C80.2167 38.594 80.1164 38.8416 80.0922 39.102C80.0681 39.3625 80.1211 39.6242 80.2448 39.8547C80.3685 40.0852 80.5573 40.2742 80.7876 40.3981C81.018 40.522 81.2797 40.5753 81.5402 40.5514C81.7198 40.5396 81.895 40.4906 82.0547 40.4076C82.2144 40.3245 82.3551 40.2092 82.4679 40.069C82.5807 39.9287 82.6631 39.7665 82.71 39.5928C82.7569 39.419 82.7672 39.2374 82.7402 39.0594Z" fill="white"/>
<path d="M88.5234 40.768L88.3514 38.216L87.2354 40.4L86.7954 40.428L85.4154 38.46L85.5794 40.956L84.6554 41.016L84.3994 36.764L85.1994 36.712L86.9594 39.252L88.3554 36.512L89.1554 36.46L89.4434 40.708L88.5234 40.768Z" fill="white"/>
<path d="M94.032 37.856C94.056 38.808 93.36 39.416 92.224 39.456L91.364 39.48L91.4 40.656L90.412 40.684L90.292 36.4L92.136 36.348C93.276 36.332 94 36.904 94.032 37.856ZM93.032 37.884C93.032 37.416 92.708 37.152 92.104 37.168L91.304 37.192L91.348 38.672L92.148 38.648C92.748 38.632 93.044 38.348 93.032 37.884Z" fill="white"/>
<path d="M94.7998 36.3076H95.7838V39.7636H97.9198V40.5636H94.7998V36.3076Z" fill="white"/>
<path d="M101.739 39.8871V40.6871L98.4395 40.5911L98.5635 36.3311L101.763 36.4271L101.739 37.2271L99.4995 37.1591L99.4755 38.0871L101.451 38.1431L101.427 38.9111L99.4515 38.8511L99.4234 39.8391L101.739 39.8871Z" fill="white"/>
<path d="M103.564 37.3195L102.204 37.2395L102.252 36.4395L105.956 36.6635L105.908 37.4635L104.548 37.3795L104.34 40.8315L103.356 40.7715L103.564 37.3195Z" fill="white"/>
<path d="M109.544 40.4715L109.472 41.2715L106.184 40.9675L106.584 36.7275L109.784 37.0235L109.712 37.8235L107.48 37.5995L107.396 38.5235L109.364 38.7035L109.296 39.4675L107.324 39.2875L107.236 40.2675L109.544 40.4715Z" fill="white"/>
<path d="M110.776 37.1152L112.692 37.3712C114.072 37.5552 114.908 38.5112 114.74 39.7712C114.572 41.0312 113.508 41.7712 112.128 41.5712L110.212 41.3152L110.776 37.1152ZM112.188 40.7832C112.362 40.8112 112.54 40.804 112.711 40.762C112.882 40.72 113.044 40.6442 113.185 40.5389C113.327 40.4337 113.445 40.3011 113.535 40.1491C113.624 39.9971 113.682 39.8288 113.706 39.654C113.729 39.4792 113.717 39.3015 113.67 39.1314C113.624 38.9614 113.544 38.8023 113.435 38.6637C113.326 38.5252 113.19 38.4098 113.035 38.3245C112.881 38.2393 112.711 38.1858 112.536 38.1672L111.644 38.0472L111.296 40.6632L112.188 40.7832Z" fill="white"/>
<path d="M130.916 33.7041L131.964 34.9321L134.916 33.7041L134.052 32.4121L130.916 33.7041Z" fill="#455A64"/>
<path d="M129.564 27.8602C129.564 28.164 129.474 28.461 129.305 28.7136C129.137 28.9662 128.897 29.163 128.616 29.2793C128.335 29.3956 128.026 29.426 127.729 29.3667C127.431 29.3074 127.157 29.1611 126.942 28.9463C126.727 28.7315 126.581 28.4578 126.522 28.1599C126.462 27.8619 126.493 27.5531 126.609 27.2724C126.725 26.9918 126.922 26.7519 127.175 26.5831C127.427 26.4143 127.724 26.3242 128.028 26.3242C128.435 26.3253 128.825 26.4874 129.113 26.7753C129.401 27.0631 129.563 27.4532 129.564 27.8602Z" fill="#0077B9"/>
<path d="M95.1561 50.7721C95.1553 50.9243 95.1093 51.0729 95.0239 51.1989C94.9384 51.3249 94.8175 51.4227 94.6764 51.4798C94.5353 51.537 94.3804 51.5509 94.2314 51.5198C94.0823 51.4888 93.9459 51.4141 93.8394 51.3053C93.7329 51.1966 93.6611 51.0586 93.6332 50.909C93.6052 50.7593 93.6224 50.6047 93.6825 50.4649C93.7426 50.325 93.8429 50.2061 93.9706 50.1234C94.0984 50.0406 94.2479 49.9977 94.4001 50.0001C94.6024 50.0033 94.7953 50.0861 94.9368 50.2307C95.0784 50.3752 95.1572 50.5698 95.1561 50.7721Z" fill="#0077B9"/>
<path d="M59.376 39.2286C59.376 39.3444 59.3415 39.4577 59.277 39.5539C59.2125 39.6501 59.1208 39.7249 59.0136 39.7689C58.9064 39.8128 58.7886 39.8239 58.6751 39.8007C58.5616 39.7775 58.4576 39.7211 58.3762 39.6386C58.2949 39.5561 58.2399 39.4513 58.2183 39.3375C58.1966 39.2237 58.2094 39.1061 58.2548 38.9995C58.3002 38.8929 58.3763 38.8023 58.4734 38.7391C58.5705 38.6759 58.6842 38.643 58.8 38.6446C58.9535 38.6467 59.1 38.7091 59.2078 38.8184C59.3156 38.9277 59.376 39.0751 59.376 39.2286Z" fill="#0077B9"/>
<path d="M57.208 32.8005L58.928 32.9045L59.744 29.5205L58.136 29.5885L57.208 32.8005Z" fill="#455A64"/>
<path d="M110.968 59.8122L111.548 61.4362L114.98 60.8602L114.288 59.4082L110.968 59.8122Z" fill="#0077B9"/>
<path d="M76.2563 50.4404L75.1963 51.8004L77.5203 54.3884L78.3763 53.0244L76.2563 50.4404Z" fill="#455A64"/>
<path d="M72.1478 18.4912L76.2078 22.6312L81.9238 20.4712L82.1518 21.8912L79.6758 26.9592L81.9598 30.7432L81.7678 31.8752L76.2358 30.9432L72.9638 34.5312L72.1958 33.9512L71.5198 29.3872L66.3598 26.6992L66.1318 25.6552L71.3278 24.2352L72.1478 18.4912Z" fill="#0077B9"/>
<g opacity="0.3">
<path d="M72.1478 18.4912L76.2078 22.6312L81.9238 20.4712L82.1518 21.8912L79.6758 26.9592L81.9598 30.7432L81.7678 31.8752L76.2358 30.9432L72.9638 34.5312L72.1958 33.9512L71.5198 29.3872L66.3598 26.6992L66.1318 25.6552L71.3278 24.2352L72.1478 18.4912Z" fill="black"/>
</g>
<path d="M72.1478 17.3271L76.2078 21.4711L81.9238 20.4711L79.2398 25.6151L81.9598 30.7431L76.2358 29.7831L72.1958 33.9511L71.3438 28.2111L66.1318 25.6551L71.3278 23.0711L72.1478 17.3271Z" fill="#0077B9"/>
<path d="M114.248 18.4912L110.184 22.6312L104.468 20.4712L104.24 21.8912L106.716 26.9592L104.432 30.7432L104.624 31.8752L110.156 30.9432L113.428 34.5312L114.196 33.9512L114.872 29.3872L120.032 26.6992L120.26 25.6552L115.064 24.2352L114.248 18.4912Z" fill="#0077B9"/>
<g opacity="0.3">
<path d="M114.248 18.4912L110.184 22.6312L104.468 20.4712L104.24 21.8912L106.716 26.9592L104.432 30.7432L104.624 31.8752L110.156 30.9432L113.428 34.5312L114.196 33.9512L114.872 29.3872L120.032 26.6992L120.26 25.6552L115.064 24.2352L114.248 18.4912Z" fill="black"/>
</g>
<path d="M114.248 17.3271L110.184 21.4711L104.468 20.4711L107.152 25.6151L104.432 30.7431L110.156 29.7831L114.196 33.9511L115.048 28.2111L120.26 25.6551L115.064 23.0711L114.248 17.3271Z" fill="#0077B9"/>
<path d="M93.064 11.2236L96.444 17.8276L104.24 17.3676L103.976 19.1836L99.024 24.4276L100.364 29.9116L99.704 31.2196L93.308 27.9756L87.952 31.1116L87.236 30.1076L88.148 24.2796L82.876 19.0356L82.996 17.6796L89.876 17.9236L93.064 11.2236Z" fill="#0077B9"/>
<g opacity="0.3">
<path d="M93.064 11.2236L96.444 17.8276L104.24 17.3676L103.976 19.1836L99.024 24.4276L100.364 29.9116L99.704 31.2196L93.308 27.9756L87.952 31.1116L87.236 30.1076L88.148 24.2796L82.876 19.0356L82.996 17.6796L89.876 17.9236L93.064 11.2236Z" fill="black"/>
</g>
<path d="M93.5041 9.80762L96.8841 16.4076L104.24 17.3676L99.0041 22.6236L100.364 29.9116L93.7521 26.5596L87.2361 30.1076L88.3841 22.7796L82.9961 17.6796L90.3201 16.5036L93.5041 9.80762Z" fill="#0077B9"/>
<path d="M106.972 69.0525L112.62 69.6765C114.527 66.9769 117.374 65.0882 120.603 64.3815C123.831 63.6747 127.208 64.2011 130.068 65.8571C132.928 67.5131 135.066 70.179 136.06 73.3309C137.055 76.4828 136.835 79.8926 135.443 82.8904C134.051 85.8882 131.589 88.257 128.539 89.5314C125.49 90.8058 122.074 90.8936 118.963 89.7774C115.852 88.6613 113.271 86.422 111.727 83.4997C110.183 80.5773 109.788 77.1832 110.62 73.9845L106.972 69.0525Z" fill="#FAFAFA"/>
<path d="M106.972 69.0521C107.192 69.3481 108.336 70.8601 110.672 73.9601H110.588C110.591 73.9535 110.595 73.9476 110.6 73.9429C110.606 73.9382 110.612 73.9348 110.619 73.9329C110.626 73.9309 110.633 73.9306 110.64 73.9318C110.647 73.9331 110.654 73.9359 110.66 73.9401C110.669 73.9457 110.676 73.9541 110.681 73.9642C110.685 73.9742 110.686 73.9854 110.684 73.9961C110.111 76.2401 110.142 78.5955 110.772 80.8241C110.957 81.4928 111.202 82.1434 111.504 82.7681C111.664 83.0881 111.816 83.4161 111.988 83.7401L112.584 84.6881C114.487 87.447 117.366 89.3811 120.64 90.1001C122.452 90.4984 124.328 90.5065 126.144 90.1241C128.058 89.7076 129.856 88.8745 131.412 87.6841C133.041 86.4469 134.351 84.8382 135.232 82.9921C136.144 81.1149 136.594 79.0466 136.544 76.9601C136.485 74.964 135.98 73.0065 135.064 71.2321C134.202 69.5499 132.981 68.0778 131.488 66.9201C128.797 64.8404 125.411 63.8725 122.028 64.2161C120.598 64.3876 119.203 64.7733 117.888 65.3601C115.796 66.3269 113.993 67.8245 112.66 69.7041C112.656 69.7118 112.649 69.7179 112.641 69.7215C112.633 69.7251 112.624 69.726 112.616 69.7241L106.972 69.0521L112.628 69.6241L112.58 69.6481C113.909 67.743 115.72 66.2248 117.828 65.2481C119.149 64.6392 120.556 64.2372 122 64.0561C125.429 63.693 128.867 64.6641 131.6 66.7681C133.119 67.9395 134.361 69.4325 135.236 71.1401C136.171 72.9401 136.686 74.9284 136.744 76.9561C136.796 79.0754 136.341 81.1766 135.416 83.0841C134.519 84.9587 133.187 86.592 131.532 87.8481C129.951 89.0549 128.124 89.8989 126.18 90.3201C124.332 90.7087 122.422 90.6965 120.58 90.2841C117.271 89.5547 114.364 87.5941 112.448 84.8001L111.848 83.8401C111.676 83.5121 111.524 83.1761 111.36 82.8521C111.059 82.2191 110.815 81.5605 110.632 80.8841C110.004 78.6317 109.988 76.253 110.584 73.9921L110.68 74.0281C110.672 74.0397 110.661 74.0482 110.648 74.0518C110.634 74.0555 110.62 74.0542 110.608 74.0481L106.972 69.0521Z" fill="#263238"/>
<path d="M118.56 72.5759C118.565 72.6371 118.565 72.6986 118.56 72.7599C118.56 72.8919 118.56 73.0599 118.56 73.2719C118.56 73.7359 118.56 74.3799 118.584 75.1959C118.584 76.8559 118.612 79.1959 118.632 81.9959L118.54 81.9039H127.952C127.976 81.8799 127.756 82.0999 127.848 82.0039V80.7239C127.848 80.3039 127.848 79.8839 127.848 79.4679V77.0319C127.848 75.4559 127.848 73.9639 127.848 72.5919L127.936 72.6839L121.136 72.6359L119.212 72.6159H118.7H118.516H118.68H119.176L121.076 72.5919L127.928 72.5479H128.02V72.6359C128.02 74.0079 128.02 75.4999 128.02 77.0759V81.9999C128.116 81.9079 127.896 82.1319 127.916 82.1079H118.504H118.412V81.9999C118.412 79.1759 118.444 76.8199 118.456 75.1479C118.456 74.3479 118.456 73.6999 118.48 73.2439C118.48 73.0399 118.48 72.8759 118.48 72.7479C118.499 72.6872 118.526 72.6293 118.56 72.5759Z" fill="#263238"/>
<path d="M126.955 74.1316C127.091 74.2396 125.827 76.0636 124.127 78.2076C123.791 78.6356 123.459 79.0436 123.151 79.4076L122.951 79.6516L122.727 79.4476C121.255 78.1236 120.259 77.1076 120.347 77.0036C120.435 76.8996 121.591 77.7396 123.115 79.0036L122.687 79.0436C122.979 78.6436 123.299 78.2436 123.639 77.8196C125.335 75.6756 126.823 74.0276 126.955 74.1316Z" fill="#0077B9"/>
</svg>
